<?xml version="1.0" encoding="UTF-8"?>
<svg version="1.1" xmlns="http://www.w3.org/2000/svg" width="1254" height="1254">
<path d="M0 0 C413.82 0 827.64 0 1254 0 C1254 413.82 1254 827.64 1254 1254 C840.18 1254 426.36 1254 0 1254 C0 840.18 0 426.36 0 0 Z " fill="#D4F10C" transform="translate(0,0)"/>
<path d="M0 0 C2.31 0.33 4.62 0.66 7 1 C4.91300322 10.39148551 2.44837309 19.69618225 0 29 C30.69 29 61.38 29 93 29 C93 31.31 93 33.62 93 36 C62.31 36 31.62 36 0 36 C-0.33 34.35 -0.66 32.7 -1 31 C-1.78375 31.185625 -2.5675 31.37125 -3.375 31.5625 C-6 32 -6 32 -8 31 C-5.943783 20.45143964 -3.14461795 10.26661829 0 0 Z " fill="#030300" transform="translate(1058,700)"/>
<path d="M0 0 C40.59 0 81.18 0 123 0 C123 2.31 123 4.62 123 7 C82.41 7 41.82 7 0 7 C0 4.69 0 2.38 0 0 Z " fill="#151800" transform="translate(518,563)"/>
<path d="M0 0 C40.92 0 81.84 0 124 0 C124 1.98 124 3.96 124 6 C83.08 6 42.16 6 0 6 C0 4.02 0 2.04 0 0 Z " fill="#060600" transform="translate(114,563)"/>
<path d="M0 0 C30.36 0 60.72 0 92 0 C92 2.64 92 5.28 92 8 C61.64 8 31.28 8 0 8 C0 5.36 0 2.72 0 0 Z " fill="#202501" transform="translate(396,562)"/>
<path d="M0 0 C27.72 0 55.44 0 84 0 C84 2.64 84 5.28 84 8 C56.28 8 28.56 8 0 8 C0 5.36 0 2.72 0 0 Z " fill="#212601" transform="translate(817,562)"/>
<path d="M0 0 C27.72 0 55.44 0 84 0 C84 2.31 84 4.62 84 7 C56.28 7 28.56 7 0 7 C0 4.69 0 2.38 0 0 Z " fill="#151800" transform="translate(965,563)"/>
<path d="M0 0 C29.7 0 59.4 0 90 0 C90 1.98 90 3.96 90 6 C60.3 6 30.6 6 0 6 C0 4.02 0 2.04 0 0 Z " fill="#060600" transform="translate(1096,563)"/>
<path d="M0 0 C25.08 0 50.16 0 76 0 C76 2.31 76 4.62 76 7 C50.92 7 25.84 7 0 7 C0 4.69 0 2.38 0 0 Z " fill="#1E2200" transform="translate(935,730)"/>
<path d="M0 0 C24.75 0 49.5 0 75 0 C75 2.31 75 4.62 75 7 C50.25 7 25.5 7 0 7 C0 4.69 0 2.38 0 0 Z " fill="#161A00" transform="translate(787,730)"/>
<path d="M0 0 C27.06 0 54.12 0 82 0 C82 1.98 82 3.96 82 6 C54.94 6 27.88 6 0 6 C0 4.02 0 2.04 0 0 Z " fill="#070800" transform="translate(141,604)"/>
<path d="M0 0 C4.875 0.875 4.875 0.875 6 2 C5.61154125 9.89866116 3.63883179 15.08350462 1 23 C12.22 23 23.44 23 35 23 C35 25.31 35 27.62 35 30 C24.11 30 13.22 30 2 30 C2 28.35 2 26.7 2 25 C1.34 25.33 0.68 25.66 0 26 C-0.33 26.99 -0.66 27.98 -1 29 C-2.98 28.34 -4.96 27.68 -7 27 C-6.42063175 20.66361809 -4.93337939 15.02931548 -2.9375 9 C-2.65583984 8.12988281 -2.37417969 7.25976562 -2.08398438 6.36328125 C-1.39567574 4.24002411 -0.70093339 2.11911583 0 0 Z " fill="#232701" transform="translate(815,659)"/>
<path d="M0 0 C13.2 0 26.4 0 40 0 C40.495 3.465 40.495 3.465 41 7 C41.99 7.66 42.98 8.32 44 9 C42.82144268 15.70774643 41.52351686 22.36181939 40 29 C37.69 28.67 35.38 28.34 33 28 C33.26089072 26.18604218 33.53434632 24.37389103 33.8125 22.5625 C33.96332031 21.55316406 34.11414063 20.54382813 34.26953125 19.50390625 C35.15720082 15.24594047 36.62456444 11.12630669 38 7 C25.46 7 12.92 7 0 7 C0 4.69 0 2.38 0 0 Z " fill="#090900" transform="translate(670,662)"/>
<path d="M0 0 C2.31 0.33 4.62 0.66 7 1 C4.91300322 10.39148551 2.44837309 19.69618225 0 29 C30.69 29 61.38 29 93 29 C93 31.31 93 33.62 93 36 C62.31 36 31.62 36 0 36 C0 35.67 0 35.34 0 35 C30.36 35 60.72 35 92 35 C92 33.35 92 31.7 92 30 C79.96060307 30.10753448 67.9212658 30.22017473 55.88197803 30.33933926 C50.29169988 30.3945111 44.70141643 30.44792196 39.11108398 30.49731445 C33.71644765 30.5450426 28.32187409 30.5973885 22.92731285 30.65294075 C20.86884817 30.67332601 18.81036629 30.69204536 16.75187111 30.70907402 C13.86942965 30.7332028 10.98710611 30.76324579 8.10473633 30.79467773 C7.25309402 30.8004332 6.40145172 30.80618866 5.52400208 30.81211853 C1.52544527 30.86170259 -2.07369062 31.18900158 -6 32 C-6.66 31.67 -7.32 31.34 -8 31 C-5.943783 20.45143964 -3.14461795 10.26661829 0 0 Z " fill="#212901" transform="translate(1058,700)"/>
<path d="M0 0 C19.14 0 38.28 0 58 0 C58 2.31 58 4.62 58 7 C38.86 7 19.72 7 0 7 C0 4.69 0 2.38 0 0 Z " fill="#1D2100" transform="translate(253,687)"/>
<path d="M0 0 C21.78 0 43.56 0 66 0 C66 1.98 66 3.96 66 6 C44.22 6 22.44 6 0 6 C0 4.02 0 2.04 0 0 Z " fill="#050600" transform="translate(268,563)"/>
<path d="M0 0 C1.25067261 0.21245361 1.25067261 0.21245361 2.52661133 0.42919922 C6.58814323 1.09665276 10.46789651 1.14362222 14.57421875 1.1328125 C15.78269218 1.13424759 15.78269218 1.13424759 17.01557922 1.13571167 C18.70903604 1.13638907 20.40249551 1.1345656 22.09594727 1.13037109 C24.68967478 1.12499549 27.2832308 1.13034175 29.87695312 1.13671875 C31.52604205 1.1360583 33.17513087 1.13477783 34.82421875 1.1328125 C35.98675423 1.13584885 35.98675423 1.13584885 37.17277527 1.13894653 C40.37891877 1.12493291 42.93610264 1.02129912 46 0 C48.1875 0.9375 48.1875 0.9375 50 2 C49.34 4.64 48.68 7.28 48 10 C46.02 10 44.04 10 42 10 C42 9.34 42 8.68 42 8 C29.79 8.33 17.58 8.66 5 9 C4.67 9.66 4.34 10.32 4 11 C1.03 10.505 1.03 10.505 -2 10 C-1.85950482 8.52031676 -1.71245174 7.04125484 -1.5625 5.5625 C-1.48128906 4.73878906 -1.40007813 3.91507813 -1.31640625 3.06640625 C-1 1 -1 1 0 0 Z " fill="#0A0B00" transform="translate(678,618)"/>
<path d="M0 0 C1.98 0 3.96 0 6 0 C6.93209759 3.63730723 7.01056852 6.00199209 5.92578125 9.58984375 C5.67199707 10.4506958 5.41821289 11.31154785 5.15673828 12.19848633 C4.73884033 13.5542981 4.73884033 13.5542981 4.3125 14.9375 C3.75386916 16.81509313 3.19527555 18.69269734 2.63671875 20.5703125 C2.35876465 21.48973633 2.08081055 22.40916016 1.79443359 23.35644531 C0.70003904 26.99814914 -0.3387519 30.65383343 -1.375 34.3125 C-1.91666667 36.20833333 -2.45833333 38.10416667 -3 40 C-5.31 39.67 -7.62 39.34 -10 39 C-7.59681735 25.75318833 -4.36864279 12.74355248 0 0 Z " fill="#161801" transform="translate(935,610)"/>
<path d="M0 0 C2.00720923 0.28674418 4.0085944 0.61866701 6 1 C4.65481708 9.32141303 2.67579727 17.3775192 0.4375 25.5 C0.12103516 26.6653125 -0.19542969 27.830625 -0.52148438 29.03125 C-2.8139881 37.44196429 -2.8139881 37.44196429 -4 41 C-5.98 40.67 -7.96 40.34 -10 40 C-9.62295365 31.99836952 -7.7498056 24.59342444 -5.56152344 16.91040039 C-4.99277795 14.91212547 -4.4369063 12.91058517 -3.8828125 10.90820312 C-1.14655517 1.14655517 -1.14655517 1.14655517 0 0 Z " fill="#0E0F00" transform="translate(1060,610)"/>
<path d="M0 0 C1.98 0 3.96 0 6 0 C5.37539747 4.90849257 4.42951317 9.57518817 3.1875 14.375 C2.83096173 15.76795585 2.47553356 17.16119621 2.12109375 18.5546875 C1.93788574 19.27495117 1.75467773 19.99521484 1.56591797 20.73730469 C0.5876175 24.6488184 -0.3317806 28.57402081 -1.25 32.5 C-1.4250708 33.24813965 -1.6001416 33.9962793 -1.78051758 34.76708984 C-2.18793614 36.51117754 -2.59411427 38.25555494 -3 40 C-5.31 39.67 -7.62 39.34 -10 39 C-9.40006513 31.28302959 -7.61851245 24.13688115 -5.5625 16.6875 C-5.24990234 15.52154297 -4.93730469 14.35558594 -4.61523438 13.15429688 C-2.06370502 3.78430429 -2.06370502 3.78430429 0 0 Z " fill="#121400" transform="translate(912,611)"/>
<path d="M0 0 C2.31 0.33 4.62 0.66 7 1 C5.65481708 9.32141303 3.67579727 17.3775192 1.4375 25.5 C1.12103516 26.6653125 0.80457031 27.830625 0.47851562 29.03125 C-1.8139881 37.44196429 -1.8139881 37.44196429 -3 41 C-4.98 40.67 -6.96 40.34 -9 40 C-8.58936403 31.14029794 -6.29113137 22.86665159 -3.9375 14.375 C-3.55591029 12.97545934 -3.17504549 11.57572082 -2.79492188 10.17578125 C-1.8716181 6.78153483 -0.93856571 3.39006234 0 0 Z " fill="#121400" transform="translate(787,610)"/>
<path d="M0 0 C1.98 0 3.96 0 6 0 C5.37448368 4.91369926 4.43183536 9.58977319 3.1875 14.39453125 C3.01371826 15.06796066 2.83993652 15.74139008 2.66088867 16.43522644 C2.2962434 17.84490095 1.92976623 19.25410277 1.56152344 20.6628418 C0.99728993 22.82287487 0.43963149 24.98452943 -0.1171875 27.14648438 C-2.85759592 37.71519183 -2.85759592 37.71519183 -4 40 C-5.98 39.67 -7.96 39.34 -10 39 C-9.55108075 31.04483741 -7.77758672 23.758252 -5.5625 16.125 C-5.24990234 15.01125 -4.93730469 13.8975 -4.61523438 12.75 C-2.07911618 3.84945836 -2.07911618 3.84945836 0 0 Z " fill="#121400" transform="translate(503,611)"/>
<path d="M0 0 C12.87 0 25.74 0 39 0 C39 2.31 39 4.62 39 7 C26.13 7 13.26 7 0 7 C0 4.69 0 2.38 0 0 Z " fill="#141700" transform="translate(1123,605)"/>
<path d="M0 0 C12.87 0 25.74 0 39 0 C39 2.31 39 4.62 39 7 C26.13 7 13.26 7 0 7 C0 4.69 0 2.38 0 0 Z " fill="#171A01" transform="translate(833,603)"/>
<path d="M0 0 C12.87 0 25.74 0 39 0 C39 2.31 39 4.62 39 7 C26.13 7 13.26 7 0 7 C0 4.69 0 2.38 0 0 Z " fill="#060700" transform="translate(654,563)"/>
<path d="M0 0 C2.31 0 4.62 0 7 0 C5.41425635 9.46289299 3.41138045 18.66956091 0.71411133 27.88232422 C-0.45854434 31.90845722 -1.40891662 35.83614599 -2 40 C-4.31 39.67 -6.62 39.34 -9 39 C-8.41801758 33.66128122 -7.51930985 28.64498991 -6.15234375 23.4375 C-5.97619034 22.76074219 -5.80003693 22.08398438 -5.61854553 21.38671875 C-5.06293303 19.25653953 -4.50035569 17.12827543 -3.9375 15 C-3.55617539 13.54309044 -3.17531194 12.0860601 -2.79492188 10.62890625 C-1.86859937 7.08452778 -0.93602767 3.54182948 0 0 Z " fill="#111200" transform="translate(1200,611)"/>
<path d="M0 0 C12.54 0 25.08 0 38 0 C38 2.31 38 4.62 38 7 C25.46 7 12.92 7 0 7 C0 4.69 0 2.38 0 0 Z " fill="#121501" transform="translate(982,603)"/>
<path d="M0 0 C14.19 0 28.38 0 43 0 C43 1.98 43 3.96 43 6 C28.81 6 14.62 6 0 6 C0 4.02 0 2.04 0 0 Z " fill="#0A0C00" transform="translate(404,687)"/>
<path d="M0 0 C13.86 0 27.72 0 42 0 C42 1.98 42 3.96 42 6 C28.14 6 14.28 6 0 6 C0 4.02 0 2.04 0 0 Z " fill="#0A0C00" transform="translate(111,685)"/>
<path d="M0 0 C11.88 0 23.76 0 36 0 C36 2.31 36 4.62 36 7 C24.12 7 12.24 7 0 7 C0 4.69 0 2.38 0 0 Z " fill="#171A01" transform="translate(591,603)"/>
<path d="M0 0 C11.88 0 23.76 0 36 0 C36 2.31 36 4.62 36 7 C24.12 7 12.24 7 0 7 C0 4.69 0 2.38 0 0 Z " fill="#131601" transform="translate(426,603)"/>
<path d="M0 0 C11.55 0 23.1 0 35 0 C35 2.31 35 4.62 35 7 C23.45 7 11.9 7 0 7 C0 4.69 0 2.38 0 0 Z " fill="#111301" transform="translate(142,644)"/>
<path d="M0 0 C2.02045442 0.60183749 4.02111039 1.27306096 6 2 C6.33 2.66 6.66 3.32 7 4 C6.10101672 6.14639517 5.09076657 8.24645859 4.03515625 10.3203125 C3.56691689 11.24830154 3.56691689 11.24830154 3.08921814 12.19503784 C2.0877371 14.1755597 1.07528921 16.15024082 0.0625 18.125 C-0.61726468 19.46447444 -1.29631065 20.80431387 -1.97460938 22.14453125 C-3.64141213 25.43396791 -5.31809708 28.7182536 -7 32 C-11.75 31.125 -11.75 31.125 -14 30 C-12.70242463 25.84883565 -11.14056506 22.04409682 -9.1796875 18.1640625 C-8.64472656 17.10058594 -8.10976562 16.03710938 -7.55859375 14.94140625 C-7.00300781 13.84699219 -6.44742188 12.75257813 -5.875 11.625 C-5.31167969 10.50738281 -4.74835938 9.38976562 -4.16796875 8.23828125 C-2.78225433 5.4903391 -1.39283053 2.7443402 0 0 Z " fill="#121401" transform="translate(261,577)"/>
<path d="M0 0 C1.65 0.66 3.3 1.32 5 2 C5 6.23752042 4.8909573 6.63054145 2.3671875 9.64453125 C1.80773438 10.32193359 1.24828125 10.99933594 0.671875 11.69726562 C-0.21757813 12.74430664 -0.21757813 12.74430664 -1.125 13.8125 C-1.69476562 14.49892578 -2.26453125 15.18535156 -2.8515625 15.89257812 C-6.52162729 20.3008264 -10.25962816 24.6513914 -14 29 C-16.475 28.01 -16.475 28.01 -19 27 C-19 21.83674549 -16.72965127 19.93113756 -13.4375 16.3125 C-12.33565899 15.06780365 -11.23539574 13.82170883 -10.13671875 12.57421875 C-9.59966309 11.96755371 -9.06260742 11.36088867 -8.50927734 10.73583984 C-5.50979383 7.28609417 -2.7448721 3.65338611 0 0 Z " fill="#0F1100" transform="translate(1034,701)"/>
<path d="M0 0 C0 11.22 0 22.44 0 34 C-2.31 34 -4.62 34 -7 34 C-7 23.11 -7 12.22 -7 1 C-5 0 -5 0 0 0 Z " fill="#1C2001" transform="translate(341,617)"/>
<path d="M0 0 C2.4375 0.8125 2.4375 0.8125 5 2 C5.33 2.99 5.66 3.98 6 5 C4.61666379 7.11766226 3.22308091 8.99214712 1.625 10.9375 C0.70231949 12.09571292 -0.21953602 13.25458348 -1.140625 14.4140625 C-1.61435547 15.00477539 -2.08808594 15.59548828 -2.57617188 16.20410156 C-4.81694966 19.03043239 -6.97151517 21.91943895 -9.125 24.8125 C-9.87007812 25.80894531 -10.61515625 26.80539062 -11.3828125 27.83203125 C-11.91648437 28.54746094 -12.45015625 29.26289062 -13 30 C-15.4375 29.1875 -15.4375 29.1875 -18 28 C-18.33 27.01 -18.66 26.02 -19 25 C-17.61666379 22.88233774 -16.22308091 21.00785288 -14.625 19.0625 C-13.70231949 17.90428708 -12.78046398 16.74541652 -11.859375 15.5859375 C-11.38564453 14.99522461 -10.91191406 14.40451172 -10.42382812 13.79589844 C-8.18305034 10.96956761 -6.02848483 8.08056105 -3.875 5.1875 C-3.12992188 4.19105469 -2.38484375 3.19460938 -1.6171875 2.16796875 C-1.08351563 1.45253906 -0.54984375 0.73710938 0 0 Z " fill="#0F1101" transform="translate(809,573)"/>
<path d="M0 0 C2 1 4 2 6 3 C4.61943114 6.00769777 3.00133432 8.39626553 0.8828125 10.93359375 C0.27566406 11.66513672 -0.33148437 12.39667969 -0.95703125 13.15039062 C-1.58996094 13.90513672 -2.22289062 14.65988281 -2.875 15.4375 C-4.12265988 16.9359781 -5.37006234 18.43467059 -6.6171875 19.93359375 C-7.49455566 20.98522705 -7.49455566 20.98522705 -8.38964844 22.05810547 C-10.28930518 24.34886801 -12.15343219 26.66627234 -14 29 C-15.875 28.75 -15.875 28.75 -18 28 C-19.1328125 25.953125 -19.1328125 25.953125 -20 24 C-19.2265625 23.10539063 -18.453125 22.21078125 -17.65625 21.2890625 C-11.62883216 14.29842065 -5.69333777 7.26737821 0 0 Z " fill="#101201" transform="translate(886,701)"/>
<path d="M0 0 C1.875 0.25 1.875 0.25 4 1 C5.25 3.0625 5.25 3.0625 6 5 C5.2265625 5.89460937 4.453125 6.78921875 3.65625 7.7109375 C-2.37116784 14.70157935 -8.30666223 21.73262179 -14 29 C-16.475 28.01 -16.475 28.01 -19 27 C-19 21.83674549 -16.72965127 19.93113756 -13.4375 16.3125 C-12.33565899 15.06780365 -11.23539574 13.82170883 -10.13671875 12.57421875 C-9.59966309 11.96755371 -9.06260742 11.36088867 -8.50927734 10.73583984 C-5.50979383 7.28609417 -2.7448721 3.65338611 0 0 Z " fill="#0F1200" transform="translate(1174,701)"/>
<path d="M0 0 C2.31 0.33 4.62 0.66 7 1 C5.65179804 8.31967174 3.87481086 15.45821371 1.875 22.625 C1.59785156 23.62917969 1.32070313 24.63335938 1.03515625 25.66796875 C0.35989931 28.11286455 -0.31852821 30.55683066 -1 33 C-3.31 32.67 -5.62 32.34 -8 32 C-6.64191537 21.66234091 -4.71165114 9.42330229 0 0 Z " fill="#161901" transform="translate(549,618)"/>
<path d="M0 0 C1.98 0.66 3.96 1.32 6 2 C5.29834362 5.36351913 4.04981859 8.22301793 2.56640625 11.31640625 C2.08236328 12.32767578 1.59832031 13.33894531 1.09960938 14.38085938 C0.33874023 15.95577148 0.33874023 15.95577148 -0.4375 17.5625 C-0.94087891 18.61630859 -1.44425781 19.67011719 -1.96289062 20.75585938 C-5.72957143 28.59435714 -5.72957143 28.59435714 -8 32 C-9.98 31.34 -11.96 30.68 -14 30 C-11.95422403 23.12619275 -9.13802697 16.87559736 -5.875 10.5 C-5.41996094 9.59507812 -4.96492187 8.69015625 -4.49609375 7.7578125 C-1.15506269 1.15506269 -1.15506269 1.15506269 0 0 Z " fill="#0E1000" transform="translate(223,659)"/>
<path d="M0 0 C3 1.5 3 1.5 6 3 C5.4574199 7.17293426 3.1441177 9.45918719 0.4375 12.5625 C-4.37463798 18.16125423 -8.74504873 23.96224792 -13 30 C-15.4375 29.1875 -15.4375 29.1875 -18 28 C-18.33 27.01 -18.66 26.02 -19 25 C-17.61666379 22.88233774 -16.22308091 21.00785288 -14.625 19.0625 C-13.70231949 17.90428708 -12.78046398 16.74541652 -11.859375 15.5859375 C-11.38564453 14.99522461 -10.91191406 14.40451172 -10.42382812 13.79589844 C-8.18305034 10.96956761 -6.02848483 8.08056105 -3.875 5.1875 C-3.12992188 4.19105469 -2.38484375 3.19460938 -1.6171875 2.16796875 C-1.08351563 1.45253906 -0.54984375 0.73710938 0 0 Z " fill="#0F1201" transform="translate(957,573)"/>
<path d="M0 0 C2.31 0 4.62 0 7 0 C7 10.89 7 21.78 7 33 C4.69 33 2.38 33 0 33 C0 22.11 0 11.22 0 0 Z " fill="#171A01" transform="translate(296,615)"/>
<path d="M0 0 C2.31 0 4.62 0 7 0 C7 10.89 7 21.78 7 33 C4.69 33 2.38 33 0 33 C0 22.11 0 11.22 0 0 Z " fill="#1D2000" transform="translate(333,577)"/>
<path d="M0 0 C2.97 0.495 2.97 0.495 6 1 C5.4003591 8.2791851 3.85155267 15.02358241 1.9375 22.0625 C1.65583984 23.11888672 1.37417969 24.17527344 1.08398438 25.26367188 C0.39510271 27.84405915 -0.29965829 30.42270414 -1 33 C-3.31 32.67 -5.62 32.34 -8 32 C-7.43820464 25.66244334 -6.33628658 19.85223955 -4.5625 13.75 C-4.34529297 12.97398437 -4.12808594 12.19796875 -3.90429688 11.3984375 C-2.79718487 7.5019352 -1.60308921 3.72811444 0 0 Z " fill="#111300" transform="translate(1047,659)"/>
<path d="M0 0 C4.75 0.875 4.75 0.875 7 2 C5.11843517 12.64690342 2.40859785 22.747261 -1 33 C-2.98 32.67 -4.96 32.34 -7 32 C-7.57178311 24.9650257 -5.47306438 18.7625391 -3.5 12.0625 C-3.16613281 10.90169922 -2.83226562 9.74089844 -2.48828125 8.54492188 C-1.6670641 5.6941252 -0.83743407 2.84606678 0 0 Z " fill="#141700" transform="translate(1119,618)"/>
<path d="M0 0 C4.75 0.875 4.75 0.875 7 2 C4.43980534 12.36334114 1.7837255 22.69429284 -1 33 C-2.98 32.67 -4.96 32.34 -7 32 C-8.28842154 28.13473539 -7.32789843 25.4260521 -6.3125 21.625 C-6.13041992 20.92052734 -5.94833984 20.21605469 -5.76074219 19.49023438 C-4.03988004 12.93147675 -2.07781216 6.45448033 0 0 Z " fill="#131500" transform="translate(638,618)"/>
<path d="M0 0 C2.4375 0.8125 2.4375 0.8125 5 2 C6.71176744 7.13530231 3.36892604 11.55701299 1.16821289 16.27978516 C0.31592692 18.11761037 -0.50965223 19.96590489 -1.33398438 21.81640625 C-1.86701172 22.97269531 -2.40003906 24.12898437 -2.94921875 25.3203125 C-3.43737061 26.38523926 -3.92552246 27.45016602 -4.4284668 28.54736328 C-6 31 -6 31 -8.00317383 31.97998047 C-10 32 -10 32 -13 30 C-12.37296891 25.95516216 -11.06657059 22.71559226 -9.27734375 19.04296875 C-8.73916016 17.93115234 -8.20097656 16.81933594 -7.64648438 15.67382812 C-6.80053711 13.9480957 -6.80053711 13.9480957 -5.9375 12.1875 C-5.36966797 11.01767578 -4.80183594 9.84785156 -4.21679688 8.64257812 C-2.81629404 5.75918993 -1.41053866 2.87848849 0 0 Z " fill="#101201" transform="translate(203,700)"/>
<path d="M0 0 C2.31 0.33 4.62 0.66 7 1 C6.24861106 7.62934291 4.58871479 13.98205471 2.9375 20.4375 C2.65583984 21.55060547 2.37417969 22.66371094 2.08398438 23.81054688 C1.39253227 26.54119671 0.69778507 29.27096292 0 32 C-2.31 31.67 -4.62 31.34 -7 31 C-6.41664564 23.85944731 -4.89994809 17.31745142 -2.9375 10.4375 C-2.65583984 9.42880859 -2.37417969 8.42011719 -2.08398438 7.38085938 C-1.39552851 4.91875452 -0.70077279 2.45862184 0 0 Z " fill="#111400" transform="translate(538,659)"/>
<path d="M0 0 C1.98 0.66 3.96 1.32 6 2 C4.15989283 12.50061158 0.1421018 22.70045419 -5 32 C-6.98 31.34 -8.96 30.68 -11 30 C-10.42102942 25.88544399 -9.49322752 22.27991125 -7.96875 18.41796875 C-7.57042969 17.40412109 -7.17210938 16.39027344 -6.76171875 15.34570312 C-6.34535156 14.30349609 -5.92898437 13.26128906 -5.5 12.1875 C-5.08363281 11.12595703 -4.66726562 10.06441406 -4.23828125 8.97070312 C-1.14342758 1.14342758 -1.14342758 1.14342758 0 0 Z " fill="#151701" transform="translate(93,618)"/>
<path d="M0 0 C2.4375 0.8125 2.4375 0.8125 5 2 C6.36209177 6.08627532 5.13571138 7.38184262 3.25390625 11.19921875 C2.96394272 11.79426712 2.67397919 12.38931549 2.37522888 13.00239563 C1.44686558 14.90211372 0.50492733 16.79472578 -0.4375 18.6875 C-1.06926502 19.97416509 -1.70013571 21.26126972 -2.33007812 22.54882812 C-3.87637342 25.70438509 -5.43491402 28.85371267 -7 32 C-8.65 31.67 -10.3 31.34 -12 31 C-13.04937722 27.16056844 -13.0244977 25.16855459 -11.26953125 21.6015625 C-10.68268555 20.38726563 -10.68268555 20.38726563 -10.08398438 19.1484375 C-9.66439453 18.31570313 -9.24480469 17.48296875 -8.8125 16.625 C-8.41224609 15.8 -8.01199219 14.975 -7.59960938 14.125 C-5.24040621 9.3071783 -2.71275327 4.62727109 0 0 Z " fill="#0F1100" transform="translate(242,618)"/>
<path d="M0 0 C12.54 0 25.08 0 38 0 C38 1.98 38 3.96 38 6 C25.46 6 12.92 6 0 6 C0 4.02 0 2.04 0 0 Z " fill="#070800" transform="translate(738,563)"/>
<path d="M0 0 C2.31 0.33 4.62 0.66 7 1 C5.48030274 8.07470713 3.72008263 15.06619387 1.875 22.0625 C1.59785156 23.11888672 1.32070312 24.17527344 1.03515625 25.26367188 C0.35826901 27.84284566 -0.32014591 30.42160698 -1 33 C-3.31 32.67 -5.62 32.34 -8 32 C-5.84300883 21.13473064 -3.54757665 10.51063934 0 0 Z " fill="#141501" transform="translate(1188,659)"/>
<path d="M0 0 C2.31 0.33 4.62 0.66 7 1 C5.69141249 8.17480397 3.92840997 15.1296512 1.875 22.125 C1.59785156 23.08148437 1.32070313 24.03796875 1.03515625 25.0234375 C0.36043779 27.35005287 -0.3179883 29.67551422 -1 32 C-2.98 31.67 -4.96 31.34 -7 31 C-6.54400908 23.62597547 -5.0738627 16.93342341 -2.9375 9.875 C-2.65583984 8.91851563 -2.37417969 7.96203125 -2.08398438 6.9765625 C-1.39722515 4.64856513 -0.70250054 2.32328567 0 0 Z " fill="#141701" transform="translate(922,659)"/>
<path d="M0 0 C2.31 0.33 4.62 0.66 7 1 C6.29304559 7.8604449 4.33617314 14.32410188 2.4375 20.9375 C2.10814453 22.09830078 1.77878906 23.25910156 1.43945312 24.45507812 C0.6303404 27.30456206 -0.18291987 30.15279247 -1 33 C-3.31 32.34 -5.62 31.68 -8 31 C-5.43980534 20.63665886 -2.7837255 10.30570716 0 0 Z " fill="#131600" transform="translate(750,659)"/>
<path d="M0 0 C2.00720923 0.28674418 4.0085944 0.61866701 6 1 C5.41664564 8.14055269 3.89994809 14.68254858 1.9375 21.5625 C1.65583984 22.57119141 1.37417969 23.57988281 1.08398438 24.61914062 C0.39552851 27.08124548 -0.29922721 29.54137816 -1 32 C-3.31 31.67 -5.62 31.34 -8 31 C-7.02891664 23.60817145 -5.431596 16.485538 -3.4375 9.3125 C-3.21553955 8.51021973 -2.9935791 7.70793945 -2.76489258 6.88134766 C-1.13328397 1.13328397 -1.13328397 1.13328397 0 0 Z " fill="#101200" transform="translate(1069,659)"/>
<path d="M0 0 C1.98 0 3.96 0 6 0 C6 11.22 6 22.44 6 34 C4.02 34 2.04 34 0 34 C-0.89693452 26.26393979 -1.10917754 18.59385494 -1.125 10.8125 C-1.12951172 9.86737549 -1.13402344 8.92225098 -1.13867188 7.94848633 C-1.13673828 7.06443115 -1.13480469 6.18037598 -1.1328125 5.26953125 C-1.13168457 4.47135986 -1.13055664 3.67318848 -1.12939453 2.85083008 C-1 1 -1 1 0 0 Z " fill="#121300" transform="translate(336,657)"/>
<path d="M0 0 C1.98 0.66 3.96 1.32 6 2 C5.34664916 8.88085948 3.73500725 15.33546035 1.9375 22 C1.65583984 23.06089844 1.37417969 24.12179687 1.08398438 25.21484375 C0.39396867 27.81117401 -0.30079203 30.40613311 -1 33 C-2.98 32.67 -4.96 32.34 -7 32 C-8.24491951 27.66570517 -7.66376759 24.87776864 -6.34765625 20.60546875 C-5.98349609 19.40341797 -5.61933594 18.20136719 -5.24414062 16.96289062 C-4.85419922 15.71701172 -4.46425781 14.47113281 -4.0625 13.1875 C-3.6714746 11.90982652 -3.28148934 10.63183423 -2.89257812 9.35351562 C-1.93857317 6.23238829 -0.97406433 3.11491384 0 0 Z " fill="#131500" transform="translate(974,618)"/>
<path d="M0 0 C2.31 0.33 4.62 0.66 7 1 C4.62564486 11.43200716 2.05598707 21.74293703 -1 32 C-3.31 31.67 -5.62 31.34 -8 31 C-6.69141249 23.82519603 -4.92840997 16.8703488 -2.875 9.875 C-2.59785156 8.91851563 -2.32070313 7.96203125 -2.03515625 6.9765625 C-1.36043779 4.64994713 -0.6820117 2.32448578 0 0 Z " fill="#141600" transform="translate(688,578)"/>
<path d="M0 0 C2.31 0.33 4.62 0.66 7 1 C5.58365187 11.64703073 2.1920274 21.78280975 -1 32 C-3.31 31.67 -5.62 31.34 -8 31 C-5.43980534 20.63665886 -2.7837255 10.30570716 0 0 Z " fill="#111400" transform="translate(370,659)"/>
<path d="M0 0 C2.31 0.33 4.62 0.66 7 1 C6.32662865 5.52616619 5.2844348 9.84181259 4.0625 14.25 C2.4557859 20.12554717 1.0724069 26.00298772 0 32 C-1.98 31.67 -3.96 31.34 -6 31 C-8.92388033 21.57154531 -2.7699904 9.11347985 0 0 Z " fill="#151801" transform="translate(1157,619)"/>
<path d="M0 0 C1.98 0.66 3.96 1.32 6 2 C5.24861106 8.62934291 3.58871479 14.98205471 1.9375 21.4375 C1.65583984 22.55060547 1.37417969 23.66371094 1.08398438 24.81054688 C0.39253227 27.54119671 -0.30221493 30.27096292 -1 33 C-3.31 32.67 -5.62 32.34 -8 32 C-6.87741073 24.69479218 -5.21792537 17.54256575 -3.4375 10.375 C-3.21553955 9.47362305 -2.9935791 8.57224609 -2.76489258 7.64355469 C-2.55243896 6.79954102 -2.33998535 5.95552734 -2.12109375 5.0859375 C-1.9295874 4.3232959 -1.73808105 3.5606543 -1.54077148 2.77490234 C-1 1 -1 1 0 0 Z " fill="#101100" transform="translate(826,618)"/>
<path d="M0 0 C2.00720923 0.28674418 4.0085944 0.61866701 6 1 C5.38569577 8.1293899 3.50188332 14.66505166 1.4375 21.5 C1.10814453 22.60859375 0.77878906 23.7171875 0.43945312 24.859375 C-0.36810457 27.57464144 -1.18137729 30.28805315 -2 33 C-3.98 32.34 -5.96 31.68 -8 31 C-7.42859948 24.02891367 -5.98555454 17.69656367 -4 11 C-3.72671875 10.04738281 -3.4534375 9.09476563 -3.171875 8.11328125 C-1.14361167 1.14361167 -1.14361167 1.14361167 0 0 Z " fill="#141500" transform="translate(1080,618)"/>
<path d="M0 0 C2.31 0.33 4.62 0.66 7 1 C6.29304559 7.8604449 4.33617314 14.32410188 2.4375 20.9375 C2.10814453 22.09830078 1.77878906 23.25910156 1.43945312 24.45507812 C0.6303404 27.30456206 -0.18291987 30.15279247 -1 33 C-5.875 32.125 -5.875 32.125 -7 31 C-6.54237097 23.85953434 -4.89491335 17.29980063 -2.9375 10.4375 C-2.65583984 9.42880859 -2.37417969 8.42011719 -2.08398438 7.38085938 C-1.39552851 4.91875452 -0.70077279 2.45862184 0 0 Z " fill="#121400" transform="translate(761,618)"/>
<path d="M0 0 C2.31 0.33 4.62 0.66 7 1 C5.75236299 11.77700249 2.41050013 21.74704993 -1 32 C-2.98 31.67 -4.96 31.34 -7 31 C-6.41664564 23.85944731 -4.89994809 17.31745142 -2.9375 10.4375 C-2.65583984 9.42880859 -2.37417969 8.42011719 -2.08398438 7.38085938 C-1.39552851 4.91875452 -0.70077279 2.45862184 0 0 Z " fill="#121400" transform="translate(1090,578)"/>
<path d="M0 0 C2.31 0.33 4.62 0.66 7 1 C4.943783 11.54856036 2.14461795 21.73338171 -1 32 C-2.98 31.67 -4.96 31.34 -7 31 C-6.54400908 23.62597547 -5.0738627 16.93342341 -2.9375 9.875 C-2.65583984 8.91851563 -2.37417969 7.96203125 -2.08398438 6.9765625 C-1.39722515 4.64856513 -0.70250054 2.32328567 0 0 Z " fill="#141600" transform="translate(732,578)"/>
<path d="M0 0 C1.98 0 3.96 0 6 0 C6 10.56 6 21.12 6 32 C3.69 32 1.38 32 -1 32 C-1.02465504 27.60343827 -1.04283842 23.2069128 -1.05493164 18.81030273 C-1.05997121 17.31355082 -1.06680287 15.81680384 -1.07543945 14.32006836 C-1.08752159 12.17300193 -1.09323191 10.02600038 -1.09765625 7.87890625 C-1.10289307 6.5854126 -1.10812988 5.29191895 -1.11352539 3.95922852 C-1 1 -1 1 0 0 Z " fill="#1E2001" transform="translate(297,700)"/>
<path d="M0 0 C2.31 0.33 4.62 0.66 7 1 C6.40387344 7.40090892 4.91672686 13.18711109 3 19.3125 C2.72671875 20.20517578 2.4534375 21.09785156 2.171875 22.01757812 C1.14670452 25.35692019 0.10466204 28.68601387 -1 32 C-3.31 31.67 -5.62 31.34 -8 31 C-5.43980534 20.63665886 -2.7837255 10.30570716 0 0 Z " fill="#121401" transform="translate(359,700)"/>
<path d="M0 0 C2.00720923 0.28674418 4.0085944 0.61866701 6 1 C5.32646876 8.02518661 3.69695944 14.6744404 1.9375 21.5 C1.65583984 22.60859375 1.37417969 23.7171875 1.08398438 24.859375 C0.39361604 27.5740437 -0.30114375 30.28750638 -1 33 C-3.31 32.67 -5.62 32.34 -8 32 C-6.99059287 24.45204521 -5.37100342 17.17088135 -3.4375 9.8125 C-3.21553955 8.96260498 -2.9935791 8.11270996 -2.76489258 7.23706055 C-1.13013975 1.13013975 -1.13013975 1.13013975 0 0 Z " fill="#111300" transform="translate(899,659)"/>
<path d="M0 0 C2.97 0.495 2.97 0.495 6 1 C5.54400908 8.37402453 4.0738627 15.06657659 1.9375 22.125 C1.65583984 23.08148437 1.37417969 24.03796875 1.08398438 25.0234375 C0.39722515 27.35143487 -0.29749946 29.67671433 -1 32 C-4.01031744 32.93423645 -4.86650268 33.04449911 -8 32 C-7.39902964 26.07132608 -6.21627861 20.5933132 -4.5625 14.875 C-4.34529297 14.10285156 -4.12808594 13.33070313 -3.90429688 12.53515625 C-2.70811764 8.31799584 -1.42429614 4.1470204 0 0 Z " fill="#141500" transform="translate(869,618)"/>
<path d="M0 0 C1.98 0.66 3.96 1.32 6 2 C5.44082012 8.3733798 4.30700828 14.18416049 2.5 20.3125 C2.05178489 21.87100795 1.60385803 23.42959884 1.15625 24.98828125 C0.95837891 25.66415283 0.76050781 26.34002441 0.55664062 27.03637695 C-0.00431267 29.01521352 -0.51148617 31.00216806 -1 33 C-3.31 32.67 -5.62 32.34 -8 32 C-6.51425477 21.06184114 -3.12491651 10.55504489 0 0 Z " fill="#0E0F00" transform="translate(589,618)"/>
<path d="M0 0 C2.97 0.495 2.97 0.495 6 1 C7.28972755 4.86918265 6.42100982 6.02846738 4.875 9.75 C2.80540141 14.8921119 0.91800189 20.04663191 -0.8125 25.3125 C-1.03115723 25.97668945 -1.24981445 26.64087891 -1.47509766 27.32519531 C-1.98589273 28.8826477 -2.49333574 30.44119889 -3 32 C-5.9375 31.25 -5.9375 31.25 -9 30 C-10.01171875 28.26171875 -10.01171875 28.26171875 -10 26 C-9.14453125 23.08203125 -9.14453125 23.08203125 -7.8125 19.8125 C-7.11833984 18.09160156 -7.11833984 18.09160156 -6.41015625 16.3359375 C-4.92846017 12.83076173 -3.41087928 9.34863977 -1.796875 5.90234375 C-0.98153912 3.95592918 -0.45816128 2.05714414 0 0 Z " fill="#141601" transform="translate(107,578)"/>
<path d="M0 0 C2.31 0.33 4.62 0.66 7 1 C5.46486464 11.19604831 2.69736887 21.06503451 0 31 C-3.01031744 31.93423645 -3.86650268 32.04449911 -7 31 C-6.41664564 23.85944731 -4.89994809 17.31745142 -2.9375 10.4375 C-2.65583984 9.42880859 -2.37417969 8.42011719 -2.08398438 7.38085938 C-1.39552851 4.91875452 -0.70077279 2.45862184 0 0 Z " fill="#121400" transform="translate(391,578)"/>
<path d="M0 0 C1.98 0.66 3.96 1.32 6 2 C4.89386117 10.4486121 1.70547989 17.39141462 -2 25 C-3.0315146 27.32185944 -4.01892591 29.65632302 -5 32 C-6.98 31.34 -8.96 30.68 -11 30 C-9.57896787 21.75801362 -6.40396908 14.60479606 -3 7 C-1.99188099 4.67004864 -0.99538363 2.3354374 0 0 Z " fill="#121401" transform="translate(77,659)"/>
<path d="M0 0 C2.31 0.33 4.62 0.66 7 1 C5.69141249 8.17480397 3.92840997 15.1296512 1.875 22.125 C1.59785156 23.08148437 1.32070313 24.03796875 1.03515625 25.0234375 C0.36043779 27.35005287 -0.3179883 29.67551422 -1 32 C-2.66611905 32.042721 -4.33382885 32.04063832 -6 32 C-6.33 31.67 -6.66 31.34 -7 31 C-6.54237097 23.85953434 -4.89491335 17.29980063 -2.9375 10.4375 C-2.65583984 9.42880859 -2.37417969 8.42011719 -2.08398438 7.38085938 C-1.39552851 4.91875452 -0.70077279 2.45862184 0 0 Z " fill="#0F1000" transform="translate(627,659)"/>
<path d="M0 0 C1.98 0.66 3.96 1.32 6 2 C5.41664564 9.14055269 3.89994809 15.68254858 1.9375 22.5625 C1.65583984 23.57119141 1.37417969 24.57988281 1.08398438 25.61914062 C0.39552851 28.08124548 -0.29922721 30.54137816 -1 33 C-3.31 32.67 -5.62 32.34 -8 32 C-7.42025812 26.22212308 -6.2815745 20.97562632 -4.5625 15.4375 C-4.12608743 13.99876301 -3.68988714 12.55996161 -3.25390625 11.12109375 C-3.0439502 10.43515137 -2.83399414 9.74920898 -2.61767578 9.04248047 C-1.70915291 6.03825029 -0.85331367 3.02033351 0 0 Z " fill="#0F1100" transform="translate(1017,618)"/>
<path d="M0 0 C2.31 0.33 4.62 0.66 7 1 C4.43980534 11.36334114 1.7837255 21.69429284 -1 32 C-3.31 31.67 -5.62 31.34 -8 31 C-6.69141249 23.82519603 -4.92840997 16.8703488 -2.875 9.875 C-2.59785156 8.91851563 -2.32070313 7.96203125 -2.03515625 6.9765625 C-1.36043779 4.64994713 -0.6820117 2.32448578 0 0 Z " fill="#0F1000" transform="translate(772,578)"/>
<path d="M0 0 C2.97 0.495 2.97 0.495 6 1 C5.24861106 7.62934291 3.58871479 13.98205471 1.9375 20.4375 C1.65583984 21.55060547 1.37417969 22.66371094 1.08398438 23.81054688 C0.39253227 26.54119671 -0.30221493 29.27096292 -1 32 C-3.31 31.67 -5.62 31.34 -8 31 C-7.38333216 24.44790417 -5.86097056 18.42772105 -4 12.125 C-3.72671875 11.17625 -3.4534375 10.2275 -3.171875 9.25 C-1.15529337 2.31058673 -1.15529337 2.31058673 0 0 Z " fill="#111300" transform="translate(775,659)"/>
<path d="M0 0 C2.31 0.33 4.62 0.66 7 1 C6.3501148 6.54617935 5.06303458 11.70799011 3.5 17.0625 C2.05815074 22.02658102 0.72267682 26.86735216 0 32 C-2.31 31.67 -4.62 31.34 -7 31 C-5.58529049 20.42135126 -2.81615177 10.27572937 0 0 Z " fill="#111400" transform="translate(655,700)"/>
<path d="M0 0 C2.97 0.495 2.97 0.495 6 1 C6 5.2150611 5.24252228 7.25597107 3.59375 11.078125 C3.09746094 12.23828125 2.60117187 13.3984375 2.08984375 14.59375 C1.56519531 15.8003125 1.04054688 17.006875 0.5 18.25 C-0.03060758 19.48409158 -0.56056296 20.7184638 -1.08984375 21.953125 C-2.3868339 24.9715748 -3.69043583 27.98698922 -5 31 C-6.65 30.67 -8.3 30.34 -10 30 C-11.44503788 26.20158264 -10.51424991 24.07884351 -8.9453125 20.4296875 C-8.49542969 19.36878906 -8.04554687 18.30789063 -7.58203125 17.21484375 C-7.10121094 16.11269531 -6.62039062 15.01054688 -6.125 13.875 C-5.65191406 12.76511719 -5.17882813 11.65523437 -4.69140625 10.51171875 C-1.36160714 2.72321429 -1.36160714 2.72321429 0 0 Z " fill="#101200" transform="translate(61,701)"/>
<path d="M0 0 C2.31 0.33 4.62 0.66 7 1 C5.58365187 11.64703073 2.1920274 21.78280975 -1 32 C-2.98 31.67 -4.96 31.34 -7 31 C-6.41664564 23.85944731 -4.89994809 17.31745142 -2.9375 10.4375 C-2.65583984 9.42880859 -2.37417969 8.42011719 -2.08398438 7.38085938 C-1.39552851 4.91875452 -0.70077279 2.45862184 0 0 Z " fill="#0E1001" transform="translate(648,578)"/>
<path d="M0 0 C2.97 0.495 2.97 0.495 6 1 C4.84682484 8.43494509 3.07836933 15.53686831 0.90234375 22.73828125 C0.04971838 25.82028204 -0.53608002 28.83864839 -1 32 C-3.31 31.67 -5.62 31.34 -8 31 C-7.44592482 24.17794933 -6.04896862 18.08150629 -4 11.5625 C-3.72671875 10.66595703 -3.4534375 9.76941406 -3.171875 8.84570312 C-1.17422945 2.3484589 -1.17422945 2.3484589 0 0 Z " fill="#0D0D00" transform="translate(700,700)"/>
<path d="M0 0 C1.6812573 3.88969607 3.3424037 7.78766871 5 11.6875 C5.71542969 13.34168945 5.71542969 13.34168945 6.4453125 15.02929688 C6.89648438 16.09599609 7.34765625 17.16269531 7.8125 18.26171875 C8.23144531 19.24100342 8.65039062 20.22028809 9.08203125 21.22924805 C10.02271682 24.06856734 10.4235661 26.03918366 10 29 C7 31 7 31 4 31 C3.62488281 30.05640625 3.24976563 29.1128125 2.86328125 28.140625 C2.34653775 26.84367684 1.82959633 25.54680753 1.3125 24.25 C0.909104 23.23740112 0.909104 23.23740112 0.49755859 22.2043457 C-1.63499125 16.86920555 -3.85126342 11.57299939 -6.1171875 6.29296875 C-7 4 -7 4 -7 2 C-4.35261084 0.5393715 -3.10551666 0 0 0 Z " fill="#141701" transform="translate(483,701)"/>
<path d="M0 0 C2.31 0.33 4.62 0.66 7 1 C4.62564486 11.43200716 2.05598707 21.74293703 -1 32 C-3.31 31.67 -5.62 31.34 -8 31 C-5.62564486 20.56799284 -3.05598707 10.25706297 0 0 Z " fill="#0E1000" transform="translate(616,700)"/>
<path d="M0 0 C2.97 0.495 2.97 0.495 6 1 C5.54400908 8.37402453 4.0738627 15.06657659 1.9375 22.125 C1.65583984 23.08148437 1.37417969 24.03796875 1.08398438 25.0234375 C0.39722515 27.35143487 -0.29749946 29.67671433 -1 32 C-3.31 31.67 -5.62 31.34 -8 31 C-5.62564486 20.56799284 -3.05598707 10.25706297 0 0 Z " fill="#121400" transform="translate(578,659)"/>
<path d="M0 0 C1.98 0.66 3.96 1.32 6 2 C5.24861106 8.62934291 3.58871479 14.98205471 1.9375 21.4375 C1.65583984 22.55060547 1.37417969 23.66371094 1.08398438 24.81054688 C0.39253227 27.54119671 -0.30221493 30.27096292 -1 33 C-3.31 32.34 -5.62 31.68 -8 31 C-6.58365187 20.35296927 -3.1920274 10.21719025 0 0 Z " fill="#0E0F00" transform="translate(381,618)"/>
<path d="M0 0 C2.31 0.33 4.62 0.66 7 1 C6.28831869 4.77832521 5.37641705 8.46522436 4.37109375 12.17578125 C4.05849609 13.33271484 3.74589844 14.48964844 3.42382812 15.68164062 C3.09833984 16.87982422 2.77285156 18.07800781 2.4375 19.3125 C2.10814453 20.53001953 1.77878906 21.74753906 1.43945312 23.00195312 C0.62775707 26.00169941 -0.18544508 29.00102899 -1 32 C-3.375 32.1875 -3.375 32.1875 -6 32 C-8 29 -8 29 -7.6003418 26.21264648 C-7.30297119 25.10993408 -7.00560059 24.00722168 -6.69921875 22.87109375 C-6.38146484 21.67162109 -6.06371094 20.47214844 -5.73632812 19.23632812 C-5.39021484 17.98271484 -5.04410156 16.72910156 -4.6875 15.4375 C-4.18573242 13.5512793 -4.18573242 13.5512793 -3.67382812 11.62695312 C-1.19372459 2.38744919 -1.19372459 2.38744919 0 0 Z " fill="#131501" transform="translate(399,700)"/>
<path d="M0 0 C10.23 0 20.46 0 31 0 C31 2.31 31 4.62 31 7 C20.77 7 10.54 7 0 7 C0 4.69 0 2.38 0 0 Z " fill="#141701" transform="translate(522,603)"/>
<path d="M0 0 C2.26593598 3.5584427 3.94830669 7.43925738 5.75 11.25 C6.52923828 12.82587891 6.52923828 12.82587891 7.32421875 14.43359375 C7.81019531 15.45066406 8.29617188 16.46773437 8.796875 17.515625 C9.46734863 18.91216309 9.46734863 18.91216309 10.15136719 20.33691406 C11.11073991 23.34751179 10.88528078 25.00522935 10 28 C8.35 28.33 6.7 28.66 5 29 C3.17816262 25.27532486 1.36919316 21.54454152 -0.4375 17.8125 C-0.95376953 16.75740234 -1.47003906 15.70230469 -2.00195312 14.61523438 C-2.49501953 13.59365234 -2.98808594 12.57207031 -3.49609375 11.51953125 C-4.17949829 10.11344604 -4.17949829 10.11344604 -4.87670898 8.67895508 C-5.95692803 6.10272305 -6.56147797 3.75112579 -7 1 C-3.375 -1.125 -3.375 -1.125 0 0 Z " fill="#121501" transform="translate(772,702)"/>
<path d="M0 0 C1.44090271 2.48533527 2.71201823 4.9115179 3.9375 7.5 C4.28941406 8.22525879 4.64132812 8.95051758 5.00390625 9.69775391 C6.01515155 11.79281072 7.01083632 13.89444232 8 16 C8.46535156 16.98742187 8.93070313 17.97484375 9.41015625 18.9921875 C12 24.65456989 12 24.65456989 12 27 C10.02 27.66 8.04 28.32 6 29 C4.58214979 26.33395686 3.16569508 23.66718728 1.75 21 C1.35425781 20.25621094 0.95851563 19.51242187 0.55078125 18.74609375 C-0.64003286 16.50111633 -1.82135554 14.25138741 -3 12 C-3.39251953 11.26007812 -3.78503906 10.52015625 -4.18945312 9.7578125 C-4.55490234 9.05398438 -4.92035156 8.35015625 -5.296875 7.625 C-5.78945801 6.68527344 -5.78945801 6.68527344 -6.29199219 5.7265625 C-7 4 -7 4 -7 1 C-3.375 -1.125 -3.375 -1.125 0 0 Z " fill="#101301" transform="translate(920,702)"/>
<path d="M0 0 C2.31 0.33 4.62 0.66 7 1 C7.39406935 5.07204996 6.34871084 8.29667321 5 12.109375 C3.68795648 15.90200079 2.50172568 19.72989435 1.3125 23.5625 C1.08602783 24.28993408 0.85955566 25.01736816 0.6262207 25.7668457 C0.08334674 27.51098154 -0.4584419 29.25545513 -1 31 C-2.98 31 -4.96 31 -7 31 C-6.88487847 29.27014758 -6.75744323 27.54111249 -6.625 25.8125 C-6.55539062 24.84957031 -6.48578125 23.88664063 -6.4140625 22.89453125 C-5.99477617 19.96348251 -5.15058014 17.71396385 -4 15 C-3.63165103 13.52916208 -3.29685338 12.04941735 -3 10.5625 C-2.23668478 6.93978175 -1.2527971 3.48993479 0 0 Z " fill="#131601" transform="translate(739,700)"/>
<path d="M0 0 C2.31 0.33 4.62 0.66 7 1 C6.3157196 7.71751324 4.37116568 13.985566 2.4375 20.4375 C1.9434668 22.1071582 1.9434668 22.1071582 1.43945312 23.81054688 C0.6306592 26.54169158 -0.18260413 29.27141986 -1 32 C-2.65 32 -4.3 32 -6 32 C-8.88044456 23.35866632 -2.41113739 8.73884314 0 0 Z " fill="#101200" transform="translate(527,700)"/>
<path d="M0 0 C2.31 0.33 4.62 0.66 7 1 C6.42138925 7.27069396 4.97522346 12.8449027 3 18.8125 C2.59007812 20.0799707 2.59007812 20.0799707 2.171875 21.37304688 C1.13022698 24.58734801 0.06849049 27.79452853 -1 31 C-2.98 31 -4.96 31 -7 31 C-6.41664564 23.85944731 -4.89994809 17.31745142 -2.9375 10.4375 C-2.65583984 9.42880859 -2.37417969 8.42011719 -2.08398438 7.38085938 C-1.39552851 4.91875452 -0.70077279 2.45862184 0 0 Z " fill="#111300" transform="translate(567,700)"/>
<path d="M0 0 C2.28611802 1.47590163 2.93517494 2.50195502 4.05908203 4.9519043 C4.56761719 6.04535156 4.56761719 6.04535156 5.08642578 7.16088867 C5.59496094 8.30460938 5.59496094 8.30460938 6.11376953 9.47143555 C6.46052734 10.21458008 6.80728516 10.95772461 7.16455078 11.72338867 C9.20190452 16.17668487 10.77016763 20.54143846 11.98876953 25.28393555 C8.36376953 28.28393555 8.36376953 28.28393555 4.98876953 28.28393555 C4.52986328 27.23334961 4.07095703 26.18276367 3.59814453 25.1003418 C3.30238525 24.42374512 3.00662598 23.74714844 2.7019043 23.05004883 C2.05875436 21.57854786 1.41601477 20.10686747 0.77368164 18.63500977 C-0.93981192 14.71335208 -2.67679555 10.80463362 -4.44873047 6.90893555 C-6.01123047 3.28393555 -6.01123047 3.28393555 -6.01123047 1.28393555 C-2.58329394 -0.91973794 -2.58329394 -0.91973794 0 0 Z " fill="#0F1100" transform="translate(908.01123046875,574.716064453125)"/>
<path d="M0 0 C3 1 3 1 4.25854492 3.05371094 C4.66177979 3.93833008 5.06501465 4.82294922 5.48046875 5.734375 C5.92197266 6.70117188 6.36347656 7.66796875 6.81835938 8.6640625 C7.27017578 9.68242188 7.72199219 10.70078125 8.1875 11.75 C8.65091797 12.75289062 9.11433594 13.75578125 9.59179688 14.7890625 C13.29843749 23.02118922 13.29843749 23.02118922 13 28 C11.02 28.66 9.04 29.32 7 30 C5.72376007 27.18984699 4.45394354 24.37706541 3.1875 21.5625 C2.83107422 20.77939453 2.47464844 19.99628906 2.10742188 19.18945312 C-0.27189568 13.88510298 -2.26957013 8.54982471 -4 3 C-2.1875 1.4375 -2.1875 1.4375 0 0 Z " fill="#111400" transform="translate(495,574)"/>
<path d="M0 0 C3 1 3 1 3.921875 2.5390625 C4.19515625 3.22742188 4.4684375 3.91578125 4.75 4.625 C6.03167472 7.74122873 7.36922713 10.8011849 8.84765625 13.828125 C9.17088867 14.49505371 9.49412109 15.16198242 9.82714844 15.84912109 C10.47867303 17.18865307 11.136782 18.52500454 11.80175781 19.85791016 C14.1114975 24.66550749 14.1114975 24.66550749 13 28 C10 30 10 30 7 30 C6.79246094 29.45214844 6.58492187 28.90429688 6.37109375 28.33984375 C3.94283416 22.09139333 1.19832697 16.03839534 -1.71313477 10.00366211 C-4 5.21002877 -4 5.21002877 -4 3 C-2.1875 1.3125 -2.1875 1.3125 0 0 Z " fill="#131501" transform="translate(1193,573)"/>
<path d="M0 0 C1.98 0.66 3.96 1.32 6 2 C4.23076339 11.81122119 1.58772786 21.37997353 -1 31 C-3.31 30.67 -5.62 30.34 -8 30 C-2.38297872 2.38297872 -2.38297872 2.38297872 0 0 Z " fill="#151701" transform="translate(421,618)"/>
<path d="M0 0 C2.97 0.495 2.97 0.495 6 1 C5.44030144 5.17229835 4.48690425 8.58514274 2.71484375 12.3984375 C2.26689453 13.37167969 1.81894531 14.34492187 1.35742188 15.34765625 C0.88884766 16.34667969 0.42027344 17.34570312 -0.0625 18.375 C-0.53494141 19.39722656 -1.00738281 20.41945313 -1.49414062 21.47265625 C-2.65632219 23.98484671 -3.82509244 26.49374253 -5 29 C-9.75 28.125 -9.75 28.125 -12 27 C-10.37777197 21.75310623 -8.24001965 16.81602215 -6 11.8125 C-5.64421875 11.00619141 -5.2884375 10.19988281 -4.921875 9.36914062 C-4.40367187 8.20608398 -4.40367187 8.20608398 -3.875 7.01953125 C-3.56304687 6.31932861 -3.25109375 5.61912598 -2.9296875 4.89770508 C-2 3 -2 3 0 0 Z " fill="#0E0F00" transform="translate(247,702)"/>
<path d="M0 0 C1.98 0.66 3.96 1.32 6 2 C5.36405373 5.80185268 4.25891418 9.0819167 2.75 12.625 C2.30785156 13.66398438 1.86570312 14.70296875 1.41015625 15.7734375 C-0.67321098 20.54036639 -2.81583082 25.27847683 -5 30 C-6.98 29.34 -8.96 28.68 -11 28 C-9.30570206 21.43257847 -6.95472402 15.19804176 -4.375 8.9375 C-4.06167725 8.1751001 -3.74835449 7.4127002 -3.42553711 6.62719727 C-1.13376371 1.13376371 -1.13376371 1.13376371 0 0 Z " fill="#141701" transform="translate(105,701)"/>
<path d="M0 0 C2.61717512 1.76110457 3.33831516 3.40048436 4.63598633 6.26342773 C5.0787793 7.23602539 5.52157227 8.20862305 5.9777832 9.21069336 C6.42573242 10.22969727 6.87368164 11.24870117 7.33520508 12.29858398 C7.80249023 13.3137207 8.26977539 14.32885742 8.7512207 15.37475586 C12.15357217 22.9684827 12.15357217 22.9684827 11.02270508 26.36108398 C8.46020508 27.54858398 8.46020508 27.54858398 6.02270508 28.36108398 C-5.97729492 4.62321991 -5.97729492 4.62321991 -5.97729492 1.36108398 C-2.56884602 -0.83006174 -2.56884602 -0.83006174 0 0 Z " fill="#111301" transform="translate(1055.977294921875,574.638916015625)"/>
<path d="M0 0 C1.875 0.25 1.875 0.25 4 1 C5.1328125 3.046875 5.1328125 3.046875 6 5 C5.19175781 5.94101562 4.38351562 6.88203125 3.55078125 7.8515625 C2.47133178 9.10935579 1.39190596 10.36716937 0.3125 11.625 C-0.21794922 12.24246094 -0.74839844 12.85992188 -1.29492188 13.49609375 C-4.56225428 17.30464073 -7.79689798 21.13726102 -11 25 C-13.16874252 24.49396008 -14.99967627 24.00016187 -17 23 C-16.40610256 19.72592696 -15.37133787 17.93783598 -13.1640625 15.46875 C-12.59429687 14.82292969 -12.02453125 14.17710937 -11.4375 13.51171875 C-10.5403125 12.51591797 -10.5403125 12.51591797 -9.625 11.5 C-8.44939382 10.17808475 -7.27488049 8.85519665 -6.1015625 7.53125 C-5.57900879 6.94923828 -5.05645508 6.36722656 -4.51806641 5.76757812 C-2.91949789 3.90626644 -1.45155248 1.97736719 0 0 Z " fill="#101200" transform="translate(487,661)"/>
<path d="M0 0 C10.89 0 21.78 0 33 0 C33 1.98 33 3.96 33 6 C22.11 6 11.22 6 0 6 C0 4.02 0 2.04 0 0 Z " fill="#0A0C00" transform="translate(965,683)"/>
<path d="M0 0 C1.32 0 2.64 0 4 0 C5.67223282 4.12276549 7.33684063 8.24856675 9 12.375 C9.71542969 14.1384375 9.71542969 14.1384375 10.4453125 15.9375 C10.89648438 17.05898438 11.34765625 18.18046875 11.8125 19.3359375 C12.23144531 20.37282715 12.65039062 21.4097168 13.08203125 22.47802734 C14 25 14 25 14 27 C12.02 27.66 10.04 28.32 8 29 C5.21530465 23.08696605 2.57266433 17.12338309 0.125 11.0625 C-0.30554688 10.00160156 -0.73609375 8.94070313 -1.1796875 7.84765625 C-2.00903553 4.96863381 -2.12674705 3.72824707 -1 1 C-0.67 0.67 -0.34 0.34 0 0 Z " fill="#111300" transform="translate(434,702)"/>
<path d="M0 0 C9.24 0 18.48 0 28 0 C28 2.31 28 4.62 28 7 C18.76 7 9.52 7 0 7 C0 4.69 0 2.38 0 0 Z " fill="#191E00" transform="translate(1111,682)"/>
<path d="M0 0 C1.98 0.99 3.96 1.98 6 3 C4.68995792 6.32688551 3.30751973 9.60477775 1.8359375 12.86328125 C1.43632812 13.74951172 1.03671875 14.63574219 0.625 15.54882812 C0.2125 16.46083984 -0.2 17.37285156 -0.625 18.3125 C-1.04523438 19.24384766 -1.46546875 20.17519531 -1.8984375 21.13476562 C-2.93134943 23.42360455 -3.96523234 25.71199959 -5 28 C-6.65 27.67 -8.3 27.34 -10 27 C-11.19210102 22.85589747 -10.83940398 20.79390132 -8.9453125 16.953125 C-8.49542969 16.02628906 -8.04554688 15.09945312 -7.58203125 14.14453125 C-7.10121094 13.18933594 -6.62039063 12.23414063 -6.125 11.25 C-5.65191406 10.27933594 -5.17882812 9.30867187 -4.69140625 8.30859375 C-1.20340402 1.20340402 -1.20340402 1.20340402 0 0 Z " fill="#111401" transform="translate(286,618)"/>
<path d="M0 0 C1.98 0 3.96 0 6 0 C6 10.56 6 21.12 6 32 C4.02 32 2.04 32 0 32 C0 21.44 0 10.88 0 0 Z " fill="#0B0D00" transform="translate(337,700)"/>
<path d="M0 0 C10.56 0 21.12 0 32 0 C32 1.98 32 3.96 32 6 C21.44 6 10.88 6 0 6 C0 4.02 0 2.04 0 0 Z " fill="#0A0C00" transform="translate(817,683)"/>
<path d="M0 0 C2.97 0.495 2.97 0.495 6 1 C4.67441683 10.33843667 1.93502964 19.07168464 -1 28 C-2.98 27.67 -4.96 27.34 -7 27 C-6.51673668 17.97908475 -4.06032114 8.12064227 0 0 Z " fill="#111300" transform="translate(1109,659)"/>
<path d="M0 0 C0.33 0 0.66 0 1 0 C1.1546875 1.670625 1.1546875 1.670625 1.3125 3.375 C1.6528125 5.169375 1.6528125 5.169375 2 7 C2.99 7.66 3.98 8.32 5 9 C3.82144268 15.70774643 2.52351686 22.36181939 1 29 C-1.31 28.67 -3.62 28.34 -6 28 C-5.73910928 26.18604218 -5.46565368 24.37389103 -5.1875 22.5625 C-5.03667969 21.55316406 -4.88585937 20.54382813 -4.73046875 19.50390625 C-3.84279918 15.24594047 -2.37543556 11.12630669 -1 7 C-13.54 7 -26.08 7 -39 7 C-39 6.67 -39 6.34 -39 6 C-26.13 6 -13.26 6 0 6 C0 4.02 0 2.04 0 0 Z " fill="#252A01" transform="translate(709,662)"/>
<path d="M0 0 C2.97 0.495 2.97 0.495 6 1 C5.46233663 7.74461265 4.0789421 13.65804789 1.9375 20.0625 C1.65583984 20.92810547 1.37417969 21.79371094 1.08398438 22.68554688 C0.39701565 24.79302719 -0.29770066 26.8975895 -1 29 C-2.98 28.34 -4.96 27.68 -7 27 C-6.42063175 20.66361809 -4.93337939 15.02931548 -2.9375 9 C-2.65583984 8.12988281 -2.37417969 7.25976562 -2.08398438 6.36328125 C-1.39567574 4.24002411 -0.70093339 2.11911583 0 0 Z " fill="#121400" transform="translate(963,659)"/>
<path d="M0 0 C1.98 0.66 3.96 1.32 6 2 C5.32473226 7.57552147 3.54547807 12.57086462 1.625 17.8125 C1.16867188 19.11864258 1.16867188 19.11864258 0.703125 20.45117188 C0.40148437 21.27810547 0.09984375 22.10503906 -0.2109375 22.95703125 C-0.48212402 23.70960205 -0.75331055 24.46217285 -1.03271484 25.23754883 C-2 27 -2 27 -5 28 C-7.1875 27.0625 -7.1875 27.0625 -9 26 C-7.53157166 16.89574431 -3.60323251 8.4170372 0 0 Z " fill="#131601" transform="translate(137,619)"/>
<path d="M0 0 C2.31 0 4.62 0 7 0 C6.59820808 3.85720239 6.03263842 7.1563283 4.5625 10.75 C2.58470115 15.67510694 1.81605482 20.77724913 1 26 C-0.99954746 26.04254356 -3.00041636 26.04080783 -5 26 C-6 25 -6 25 -6.25 22.02734375 C-6.18147835 17.23939361 -4.59823353 13.02963471 -3 8.5625 C-2.71382812 7.73556641 -2.42765625 6.90863281 -2.1328125 6.05664062 C-1.43146095 4.03441032 -0.71705448 2.01671572 0 0 Z " fill="#181C01" transform="translate(518,578)"/>
<path d="M0 0 C2.9375 0.375 2.9375 0.375 6 1 C7 3 7 3 6.45849609 5.23071289 C5.45181898 8.18266866 4.42458462 11.12550444 3.375 14.0625 C3.03082031 15.09439453 2.68664062 16.12628906 2.33203125 17.18945312 C1.98269531 18.16978516 1.63335938 19.15011719 1.2734375 20.16015625 C0.95810059 21.06386963 0.64276367 21.96758301 0.31787109 22.89868164 C-1 25 -1 25 -3.51708984 25.86499023 C-6 26 -6 26 -8 25 C-7.43375164 19.05837993 -5.6793942 14.07178852 -3.4375 8.5625 C-3.10814453 7.73556641 -2.77878906 6.90863281 -2.43945312 6.05664062 C-1.63314164 4.03501907 -0.81751877 2.01711551 0 0 Z " fill="#101201" transform="translate(636,578)"/>
<path d="M0 0 C2.31 0.33 4.62 0.66 7 1 C5.63353125 9.6678988 2.88315195 17.74670244 0 26 C-1.65 25.67 -3.3 25.34 -5 25 C-6.16983989 21.57032105 -5.81325413 19.45660565 -4.78515625 16.015625 C-4.51123047 15.08105469 -4.23730469 14.14648438 -3.95507812 13.18359375 C-3.66052734 12.21550781 -3.36597656 11.24742187 -3.0625 10.25 C-2.77181641 9.26644531 -2.48113281 8.28289063 -2.18164062 7.26953125 C-1.46327231 4.84356612 -0.73579178 2.42072642 0 0 Z " fill="#141701" transform="translate(858,659)"/>
<path d="M0 0 C1.98 0.66 3.96 1.32 6 2 C4.39840797 10.76660902 2.20549731 19.37072413 0 28 C-2.9375 27.1875 -2.9375 27.1875 -6 26 C-7.14543115 22.56370655 -6.81718225 21.57506918 -5.8203125 18.18359375 C-5.55089844 17.25482422 -5.28148437 16.32605469 -5.00390625 15.36914062 C-4.71386719 14.40169922 -4.42382812 13.43425781 -4.125 12.4375 C-3.84269531 11.46619141 -3.56039063 10.49488281 -3.26953125 9.49414062 C-1.17366071 2.34732143 -1.17366071 2.34732143 0 0 Z " fill="#0F1001" transform="translate(460,618)"/>
<path d="M0 0 C9.9 0 19.8 0 30 0 C30 1.98 30 3.96 30 6 C20.1 6 10.2 6 0 6 C0 4.02 0 2.04 0 0 Z " fill="#070700" transform="translate(700,731)"/>
<path d="M0 0 C9.9 0 19.8 0 30 0 C30 1.98 30 3.96 30 6 C20.1 6 10.2 6 0 6 C0 4.02 0 2.04 0 0 Z " fill="#080900" transform="translate(617,731)"/>
<path d="M0 0 C9.9 0 19.8 0 30 0 C30 1.98 30 3.96 30 6 C20.1 6 10.2 6 0 6 C0 4.02 0 2.04 0 0 Z " fill="#060600" transform="translate(528,731)"/>
<path d="M0 0 C9.9 0 19.8 0 30 0 C30 1.98 30 3.96 30 6 C20.1 6 10.2 6 0 6 C0 4.02 0 2.04 0 0 Z " fill="#060700" transform="translate(448,731)"/>
<path d="M0 0 C9.9 0 19.8 0 30 0 C30 1.98 30 3.96 30 6 C20.1 6 10.2 6 0 6 C0 4.02 0 2.04 0 0 Z " fill="#060700" transform="translate(360,731)"/>
<path d="M0 0 C9.9 0 19.8 0 30 0 C30 1.98 30 3.96 30 6 C20.1 6 10.2 6 0 6 C0 4.02 0 2.04 0 0 Z " fill="#070700" transform="translate(203,731)"/>
<path d="M0 0 C9.9 0 19.8 0 30 0 C30 1.98 30 3.96 30 6 C20.1 6 10.2 6 0 6 C0 4.02 0 2.04 0 0 Z " fill="#080900" transform="translate(62,731)"/>
<path d="M0 0 C4.75 0.875 4.75 0.875 7 2 C5.44343542 6.86905669 3.64887852 11.59574946 1.6875 16.3125 C1.40455078 17.04017578 1.12160156 17.76785156 0.83007812 18.51757812 C-0.05078125 20.61328125 -0.05078125 20.61328125 -2 24 C-4.60546875 25.04296875 -4.60546875 25.04296875 -7 25 C-7.66 24.67 -8.32 24.34 -9 24 C-8.42266085 18.3365779 -6.29383632 13.72836052 -3.9375 8.625 C-3.56044922 7.79355469 -3.18339844 6.96210937 -2.79492188 6.10546875 C-1.86956644 4.06734412 -0.9378163 2.0324133 0 0 Z " fill="#0F1100" transform="translate(165,660)"/>
<path d="M0 0 C1.67542976 0.28604898 3.34385343 0.61781233 5 1 C6.63271694 5.89815081 4.10180854 9.94860956 2.3125 14.625 C1.95994141 15.6046875 1.60738281 16.584375 1.24414062 17.59375 C0.89158203 18.52445313 0.53902344 19.45515625 0.17578125 20.4140625 C-0.14479248 21.2695166 -0.46536621 22.1249707 -0.7956543 23.00634766 C-2 25 -2 25 -3.94848633 25.91162109 C-6 26 -6 26 -9 24 C-3.234375 3.234375 -3.234375 3.234375 0 0 Z " fill="#0F1000" transform="translate(234,578)"/>
<path d="M0 0 C2.31 0.33 4.62 0.66 7 1 C5.48565898 9.46835441 3.27628663 17.71254868 1 26 C-0.98 25.67 -2.96 25.34 -5 25 C-6.16445606 21.50663182 -5.77002998 20.37173851 -4.78515625 16.89453125 C-4.51123047 15.91162109 -4.23730469 14.92871094 -3.95507812 13.91601562 C-3.66052734 12.89185547 -3.36597656 11.86769531 -3.0625 10.8125 C-2.77181641 9.77673828 -2.48113281 8.74097656 -2.18164062 7.67382812 C-1.46196023 5.11365361 -0.7344788 2.55596089 0 0 Z " fill="#121400" transform="translate(1006,659)"/>
<path d="M0 0 C9.57 0 19.14 0 29 0 C29 1.98 29 3.96 29 6 C19.43 6 9.86 6 0 6 C0 4.02 0 2.04 0 0 Z " fill="#070800" transform="translate(305,731)"/>
<path d="M0 0 C2.31 0.33 4.62 0.66 7 1 C5.32234985 9.54076441 2.65997819 17.72564036 0 26 C-1.98 25.34 -3.96 24.68 -6 24 C-5.3680971 18.92502981 -4.35345863 14.11585481 -3 9.1875 C-2.82210938 8.52041016 -2.64421875 7.85332031 -2.4609375 7.16601562 C-1.13911401 2.27822802 -1.13911401 2.27822802 0 0 Z " fill="#101301" transform="translate(1147,659)"/>
<path d="M0 0 C7.92 0 15.84 0 24 0 C24 1.98 24 3.96 24 6 C16.08 6 8.16 6 0 6 C0 4.02 0 2.04 0 0 Z " fill="#090A00" transform="translate(426,644)"/>
<path d="M0 0 C1.98 0.66 3.96 1.32 6 2 C4.75297849 8.35450323 3.42635741 14.68327435 2 21 C-0.31 20.67 -2.62 20.34 -5 20 C-3.68421053 3.68421053 -3.68421053 3.68421053 0 0 Z " fill="#101200" transform="translate(664,670)"/>
<path d="M0 0 C14.85 0 29.7 0 45 0 C45 0.33 45 0.66 45 1 C43.78098999 1.03758423 43.78098999 1.03758423 42.53735352 1.07592773 C38.87889248 1.19149118 35.22071472 1.31439584 31.5625 1.4375 C30.28310547 1.47681641 29.00371094 1.51613281 27.68554688 1.55664062 C25.86313477 1.61948242 25.86313477 1.61948242 24.00390625 1.68359375 C22.87799072 1.72025146 21.7520752 1.75690918 20.59204102 1.79467773 C18.07146559 1.71218045 18.07146559 1.71218045 17 3 C14.8778002 3.12569503 12.75088655 3.17576773 10.625 3.1875 C8.88089844 3.20876953 8.88089844 3.20876953 7.1015625 3.23046875 C4 3 4 3 1 1 C1 1.99 1 2.98 1 4 C19.15 4 37.3 4 56 4 C56 4.33 56 4.66 56 5 C37.52 5 19.04 5 0 5 C0 3.35 0 1.7 0 0 Z " fill="#020100" transform="translate(936,731)"/>
<path d="M0 0 C29.04 0 58.08 0 88 0 C88 0.33 88 0.66 88 1 C83.545 1.495 83.545 1.495 79 2 C79 2.33 79 2.66 79 3 C76.03 3 73.06 3 70 3 C70 2.67 70 2.34 70 2 C51.52 2 33.04 2 14 2 C14 2.33 14 2.66 14 3 C9.38 3.33 4.76 3.66 0 4 C0 2.68 0 1.36 0 0 Z " fill="#0D0E00" transform="translate(1058,731)"/>
<path d="M0 0 C12.87 0 25.74 0 39 0 C39 1.32 39 2.64 39 4 C38.01 4 37.02 4 36 4 C36 3.34 36 2.68 36 2 C24.45 2 12.9 2 1 2 C1 3.32 1 4.64 1 6 C13.54 6 26.08 6 39 6 C39 6.33 39 6.66 39 7 C26.13 7 13.26 7 0 7 C0 4.69 0 2.38 0 0 Z " fill="#292F01" transform="translate(654,563)"/>
<path d="M0 0 C0.33 0.66 0.66 1.32 1 2 C1.99 1.67 2.98 1.34 4 1 C4.86325845 3.41712366 5.1132654 4.64990694 4.3125 7.125 C3 9 3 9 1.08984375 9.765625 C-1.8483985 11.50111014 -2.44811825 13.51494916 -3.75 16.625 C-4.17796875 17.62789062 -4.6059375 18.63078125 -5.046875 19.6640625 C-5.36140625 20.43492187 -5.6759375 21.20578125 -6 22 C-11.75 21.125 -11.75 21.125 -14 20 C-13.88490339 18.58249437 -13.75746342 17.16598831 -13.625 15.75 C-13.55539062 14.96109375 -13.48578125 14.1721875 -13.4140625 13.359375 C-12.98492887 10.914123 -12.21399362 9.15163097 -11 7 C-9.84042793 10.47871621 -10.22543349 11.34219645 -11.4375 14.6875 C-11.86869141 15.89986328 -11.86869141 15.89986328 -12.30859375 17.13671875 C-12.65083984 18.05904297 -12.65083984 18.05904297 -13 19 C-11.02 19 -9.04 19 -7 19 C-4.69 12.73 -2.38 6.46 0 0 Z " fill="#BFDA0B" transform="translate(641,584)"/>
<path d="M0 0 C0.33 0 0.66 0 1 0 C1 1.98 1 3.96 1 6 C2.32 6 3.64 6 5 6 C4.67 9.3 4.34 12.6 4 16 C1.69 15.67 -0.62 15.34 -3 15 C-2.5547115 9.72684667 -1.91626837 4.98229776 0 0 Z " fill="#1C1F01" transform="translate(695,716)"/>
<path d="M0 0 C1 4 1 4 0 7 C10.23 7 20.46 7 31 7 C31.33 6.01 31.66 5.02 32 4 C31.67 7.3 31.34 10.6 31 14 C30.67 14 30.34 14 30 14 C30 12.02 30 10.04 30 8 C20.1 8 10.2 8 0 8 C0 9.98 0 11.96 0 14 C-0.12375 13.360625 -0.2475 12.72125 -0.375 12.0625 C-0.58125 11.381875 -0.7875 10.70125 -1 10 C-1.66 9.67 -2.32 9.34 -3 9 C-2.01 6.03 -1.02 3.06 0 0 Z " fill="#838F03" transform="translate(528,723)"/>
<path d="M0 0 C15.84 0.495 15.84 0.495 32 1 C32 1.33 32 1.66 32 2 C31.19780029 2.01458252 30.39560059 2.02916504 29.5690918 2.04418945 C25.94140301 2.11856719 22.31464496 2.21526243 18.6875 2.3125 C16.79354492 2.34633789 16.79354492 2.34633789 14.86132812 2.38085938 C13.65283203 2.41630859 12.44433594 2.45175781 11.19921875 2.48828125 C10.08377686 2.51446533 8.96833496 2.54064941 7.8190918 2.56762695 C4.69685336 3.04649456 3.97424587 3.65809027 2 6 C1.34 6 0.68 6 0 6 C0 4.02 0 2.04 0 0 Z " fill="#101200" transform="translate(268,563)"/>
<path d="M0 0 C0.66 0 1.32 0 2 0 C1.37946345 7.07411671 -0.02010839 13.58707434 -5 19 C-5.66 19 -6.32 19 -7 19 C-5.57633814 14.0818954 -3.41528366 9.76979671 -1.0234375 5.26953125 C0.20554109 2.95913714 0.20554109 2.95913714 0 0 Z " fill="#BED809" transform="translate(247,620)"/>
<path d="M0 0 C1.2380014 3.57644848 0.74926071 6.33694766 0 10 C-0.33 10 -0.66 10 -1 10 C-1 8.02 -1 6.04 -1 4 C-10.9 4 -20.8 4 -31 4 C-31 3.67 -31 3.34 -31 3 C-21.1 3 -11.2 3 -1 3 C-0.67 2.01 -0.34 1.02 0 0 Z " fill="#8A9406" transform="translate(391,727)"/>
<path d="M0 0 C2.31 0.33 4.62 0.66 7 1 C6.67 2.65 6.34 4.3 6 6 C5.401875 5.814375 4.80375 5.62875 4.1875 5.4375 C1.83591238 4.77906313 1.83591238 4.77906313 -1 6 C-0.67 4.02 -0.34 2.04 0 0 Z " fill="#212301" transform="translate(1147,659)"/>
<path d="M0 0 C2 3 2 3 1.5390625 6.57421875 C1.24703719 7.94806509 0.94185048 9.31916586 0.625 10.6875 C0.47289062 11.38939453 0.32078125 12.09128906 0.1640625 12.81445312 C-0.21275232 14.5454462 -0.60491263 16.27308587 -1 18 C-3.21696593 14.51384168 -3.0271308 12.41897508 -2.1875 8.4375 C-1.99542969 7.48746094 -1.80335937 6.53742187 -1.60546875 5.55859375 C-1 3 -1 3 0 0 Z " fill="#C8DF04" transform="translate(1084,591)"/>
<path d="M0 0 C0.99 0 1.98 0 3 0 C4.17571451 3.67410785 4.07366746 7.16929183 4 11 C3.690625 10.360625 3.38125 9.72125 3.0625 9.0625 C2.1654837 7.06389179 2.1654837 7.06389179 1 6 C-0.99958364 5.95919217 -3.00045254 5.95745644 -5 6 C-4.360625 5.566875 -3.72125 5.13375 -3.0625 4.6875 C-0.73253997 3.08760823 -0.73253997 3.08760823 0 0 Z " fill="#BCD507" transform="translate(783,726)"/>
<path d="M0 0 C0.66 0.33 1.32 0.66 2 1 C3.07145357 6.26798007 3.43012755 10.01823852 1 15 C0.01 15.33 -0.98 15.66 -2 16 C-1.40380045 11.13103697 -0.43023178 6.67209049 1 2 C0.34 1.67 -0.32 1.34 -1 1 C-0.67 0.67 -0.34 0.34 0 0 Z " fill="#BDD405" transform="translate(928,658)"/>
<path d="M0 0 C7.92 0.33 15.84 0.66 24 1 C24 1.33 24 1.66 24 2 C23.11477661 2.03758423 23.11477661 2.03758423 22.21166992 2.07592773 C19.53673186 2.19200052 16.8621362 2.31467572 14.1875 2.4375 C12.7943457 2.49647461 12.7943457 2.49647461 11.37304688 2.55664062 C10.0340332 2.61948242 10.0340332 2.61948242 8.66796875 2.68359375 C7.43469849 2.73858032 7.43469849 2.73858032 6.17651367 2.79467773 C3.82094822 2.93427772 3.82094822 2.93427772 1 4 C0.67 4.66 0.34 5.32 0 6 C0 4.02 0 2.04 0 0 Z " fill="#101300" transform="translate(965,563)"/>
<path d="M0 0 C6.27 0.33 12.54 0.66 19 1 C19 1.33 19 1.66 19 2 C18.01257813 2.03738281 17.02515625 2.07476563 16.0078125 2.11328125 C14.08582031 2.21189453 14.08582031 2.21189453 12.125 2.3125 C10.84882812 2.37050781 9.57265625 2.42851563 8.2578125 2.48828125 C7.18273437 2.65714844 6.10765625 2.82601562 5 3 C4.01 4.485 4.01 4.485 3 6 C2.01 6 1.02 6 0 6 C0 4.02 0 2.04 0 0 Z " fill="#0E1000" transform="translate(817,563)"/>
<path d="M0 0 C0.99 0 1.98 0 3 0 C2.57835981 1.98260599 2.13721222 3.96107245 1.6875 5.9375 C1.44386719 7.03964844 1.20023438 8.14179687 0.94921875 9.27734375 C0.63597656 10.17582031 0.32273437 11.07429687 0 12 C-0.99 12.33 -1.98 12.66 -3 13 C-2.68991116 11.39536551 -2.37683713 9.79130769 -2.0625 8.1875 C-1.88847656 7.29417969 -1.71445312 6.40085937 -1.53515625 5.48046875 C-1 3 -1 3 0 0 Z " fill="#BFDC05" transform="translate(582,670)"/>
<path d="M0 0 C2.00720923 0.28674418 4.0085944 0.61866701 6 1 C6 1.99 6 2.98 6 4 C5.401875 4.144375 4.80375 4.28875 4.1875 4.4375 C2.43849596 4.8872439 0.71322977 5.42892341 -1 6 C-1.33 6.66 -1.66 7.32 -2 8 C-1.125 1.125 -1.125 1.125 0 0 Z " fill="#191A01" transform="translate(1060,610)"/>
<path d="M0 0 C0.66 0.33 1.32 0.66 2 1 C0.515 6.445 0.515 6.445 -1 12 C1.64 12 4.28 12 7 12 C6.67 12.99 6.34 13.98 6 15 C0.25 14.125 0.25 14.125 -2 13 C-1.85769192 11.58297487 -1.71099254 10.1663904 -1.5625 8.75 C-1.48128906 7.96109375 -1.40007813 7.1721875 -1.31640625 6.359375 C-1.02365007 4.17635361 -0.57935581 2.1226818 0 0 Z " fill="#CCE309" transform="translate(629,591)"/>
<path d="M0 0 C2.97 0.495 2.97 0.495 6 1 C6 1.99 6 2.98 6 4 C5.05125 4.28875 4.1025 4.5775 3.125 4.875 C-0.05211578 5.76825109 -0.05211578 5.76825109 -2 8 C-1.125 2.25 -1.125 2.25 0 0 Z " fill="#1B1D00" transform="translate(700,700)"/>
<path d="M0 0 C2.13181214 3.74287627 1.95685425 5.78984129 1 10 C0.01 10.33 -0.98 10.66 -2 11 C-2.33 12.98 -2.66 14.96 -3 17 C-4.56393356 13.02623171 -3.36145292 10.18622097 -2.0625 6.25 C-1.68222656 5.07953125 -1.30195312 3.9090625 -0.91015625 2.703125 C-0.60980469 1.81109375 -0.30945312 0.9190625 0 0 Z " fill="#ACC304" transform="translate(1161,631)"/>
<path d="M0 0 C-0.33 0.66 -0.66 1.32 -1 2 C0.32 2.66 1.64 3.32 3 4 C1.68 4.33 0.36 4.66 -1 5 C-1.33 6.65 -1.66 8.3 -2 10 C-2.33 10 -2.66 10 -3 10 C-3 7.36 -3 4.72 -3 2 C-4.65 2 -6.3 2 -8 2 C-8 1.67 -8 1.34 -8 1 C-2.25 -1.125 -2.25 -1.125 0 0 Z " fill="#C0D90A" transform="translate(236,727)"/>
<path d="M0 0 C1.98 0 3.96 0 6 0 C5.67 1.32 5.34 2.64 5 4 C3.02 4.33 1.04 4.66 -1 5 C-1.33 5.99 -1.66 6.98 -2 8 C-1.125 2.25 -1.125 2.25 0 0 Z " fill="#232703" transform="translate(912,611)"/>
<path d="M0 0 C2.31 0.33 4.62 0.66 7 1 C7 2.65 7 4.3 7 6 C6.21625 5.649375 5.4325 5.29875 4.625 4.9375 C3.75875 4.628125 2.8925 4.31875 2 4 C1.01 4.495 1.01 4.495 0 5 C0 3.35 0 1.7 0 0 Z " fill="#1E2100" transform="translate(655,700)"/>
<path d="M0 0 C2 2 2 2 2.125 4.625 C2.08375 5.40875 2.0425 6.1925 2 7 C3.32 6.67 4.64 6.34 6 6 C6 6.99 6 7.98 6 9 C3.69 8.67 1.38 8.34 -1 8 C-0.67 5.36 -0.34 2.72 0 0 Z " fill="#222901" transform="translate(582,642)"/>
<path d="M0 0 C1.98 0.66 3.96 1.32 6 2 C5.67 3.32 5.34 4.64 5 6 C4.01 6 3.02 6 2 6 C1.01 6.495 1.01 6.495 0 7 C-1.125 2.25 -1.125 2.25 0 0 Z " fill="#171A01" transform="translate(1017,618)"/>
<path d="M0 0 C0.99 0.33 1.98 0.66 3 1 C2.745504 2.48206495 2.47088238 3.96068615 2.1875 5.4375 C2.03667969 6.26121094 1.88585937 7.08492187 1.73046875 7.93359375 C1.48941406 8.61550781 1.24835937 9.29742188 1 10 C0.01 10.33 -0.98 10.66 -2 11 C-1.34 7.37 -0.68 3.74 0 0 Z " fill="#BAD605" transform="translate(790,625)"/>
<path d="M0 0 C0.66 0.99 1.32 1.98 2 3 C-0.64 5.64 -3.28 8.28 -6 11 C-6.66 10.67 -7.32 10.34 -8 10 C-5.36 6.7 -2.72 3.4 0 0 Z " fill="#BEDB07" transform="translate(883,715)"/>
<path d="M0 0 C2.52394612 3.12488567 4.39701907 6.31314387 6 10 C5.67 10.66 5.34 11.32 5 12 C2.65398514 9.86725921 1.13735551 7.97462211 0 5 C-0.125 2.25 -0.125 2.25 0 0 Z " fill="#B7CC04" transform="translate(1193,587)"/>
<path d="M0 0 C0.99 0.33 1.98 0.66 3 1 C2.34 2.98 1.68 4.96 1 7 C0.34 7 -0.32 7 -1 7 C-1 7.99 -1 8.98 -1 10 C-2.65 10 -4.3 10 -6 10 C-4.68 9.67 -3.36 9.34 -2 9 C-1.34 6.03 -0.68 3.06 0 0 Z " fill="#A6C005" transform="translate(740,722)"/>
<path d="M0 0 C4.875 4.625 4.875 4.625 6 8 C3.69 7.67 1.38 7.34 -1 7 C-0.67 4.69 -0.34 2.38 0 0 Z " fill="#282C01" transform="translate(926,642)"/>
<path d="M0 0 C0.33 0 0.66 0 1 0 C1 4.29 1 8.58 1 13 C0.34 12.67 -0.32 12.34 -1 12 C-1.4140625 9.93359375 -1.4140625 9.93359375 -1.625 7.4375 C-1.69976562 6.61121094 -1.77453125 5.78492188 -1.8515625 4.93359375 C-1.90054687 4.29550781 -1.94953125 3.65742187 -2 3 C-1.34 3 -0.68 3 0 3 C0 2.01 0 1.02 0 0 Z " fill="#D1E609" transform="translate(295,626)"/>
<path d="M0 0 C0.66 0.33 1.32 0.66 2 1 C2.66 1 3.32 1 4 1 C4 2.32 4 3.64 4 5 C1.69 4.67 -0.62 4.34 -3 4 C-3 3.01 -3 2.02 -3 1 C-2.01 0.67 -1.02 0.34 0 0 Z " fill="#1A2101" transform="translate(767,605)"/>
<path d="M0 0 C0.86625 0.556875 0.86625 0.556875 1.75 1.125 C1.75 1.785 1.75 2.445 1.75 3.125 C-0.23 3.125 -2.21 3.125 -4.25 3.125 C-4.58 3.785 -4.91 4.445 -5.25 5.125 C-5.58 3.805 -5.91 2.485 -6.25 1.125 C-2.80384615 -1.09038462 -2.80384615 -1.09038462 0 0 Z " fill="#1B1E01" transform="translate(908.25,574.875)"/>
<path d="M0 0 C1.53508028 2.43338652 2.03088304 3.67124507 1.7578125 6.578125 C1.44457031 7.90070312 1.44457031 7.90070312 1.125 9.25 C0.92132812 10.14203125 0.71765625 11.0340625 0.5078125 11.953125 C0.34023437 12.62859375 0.17265625 13.3040625 0 14 C-1.53508028 11.56661348 -2.03088304 10.32875493 -1.7578125 7.421875 C-1.54898437 6.54015625 -1.34015625 5.6584375 -1.125 4.75 C-0.92132812 3.85796875 -0.71765625 2.9659375 -0.5078125 2.046875 C-0.34023437 1.37140625 -0.17265625 0.6959375 0 0 Z " fill="#C3DB04" transform="translate(1050,636)"/>
<path d="M0 0 C0.66 0 1.32 0 2 0 C1.88541307 1.43836751 1.75790884 2.87570966 1.625 4.3125 C1.55539062 5.11300781 1.48578125 5.91351562 1.4140625 6.73828125 C1 9 1 9 -1 12 C-1.02712066 10.56260487 -1.04645067 9.12506137 -1.0625 7.6875 C-1.07410156 6.88699219 -1.08570313 6.08648438 -1.09765625 5.26171875 C-1 3 -1 3 0 0 Z " fill="#C4DE07" transform="translate(465,623)"/>
<path d="M0 0 C0.99 0 1.98 0 3 0 C2.34 3.63 1.68 7.26 1 11 C-1.78637633 6.8204355 -0.79562512 4.85331323 0 0 Z " fill="#CDE507" transform="translate(735,704)"/>
<path d="M0 0 C0.33 0 0.66 0 1 0 C1.33 4.62 1.66 9.24 2 14 C0.68 13.67 -0.64 13.34 -2 13 C-2 12.34 -2 11.68 -2 11 C-1.34 11 -0.68 11 0 11 C0 7.37 0 3.74 0 0 Z " fill="#0E0F00" transform="translate(300,718)"/>
<path d="M0 0 C0.66 0.66 1.32 1.32 2 2 C1.625 5.625 1.625 5.625 1 9 C0.01 9.33 -0.98 9.66 -2 10 C-1.34 6.7 -0.68 3.4 0 0 Z " fill="#C6E109" transform="translate(570,715)"/>
<path d="M0 0 C1.32 0 2.64 0 4 0 C4 0.66 4 1.32 4 2 C3.34 2 2.68 2 2 2 C1.01 4.97 0.02 7.94 -1 11 C-2.13757948 6.44968209 -1.4283779 4.36915594 0 0 Z " fill="#394103" transform="translate(527,700)"/>
<path d="M0 0 C0.66 0 1.32 0 2 0 C1.34 3.63 0.68 7.26 0 11 C-2 8 -2 8 -2 4 C-1.34 4 -0.68 4 0 4 C0 2.68 0 1.36 0 0 Z " fill="#C6D806" transform="translate(747,663)"/>
<path d="M0 0 C0.66 0.66 1.32 1.32 2 2 C1.625 4.625 1.625 4.625 1 7 C0.34 7 -0.32 7 -1 7 C-1 7.66 -1 8.32 -1 9 C-1.66 9 -2.32 9 -3 9 C-2.01 6.03 -1.02 3.06 0 0 Z " fill="#B4CE08" transform="translate(288,628)"/>
<path d="M0 0 C0.99 0.33 1.98 0.66 3 1 C1.35 2.98 -0.3 4.96 -2 7 C-2.66 6.34 -3.32 5.68 -4 5 C-2.68 3.35 -1.36 1.7 0 0 Z " fill="#C1DD07" transform="translate(950,594)"/>
<path d="M0 0 C0.66 0.99 1.32 1.98 2 3 C1.67 3.99 1.34 4.98 1 6 C0.34 6 -0.32 6 -1 6 C-1.33 7.98 -1.66 9.96 -2 12 C-3.12377697 8.69564916 -2.89554742 6.9493138 -1.5625 3.75 C-1.27503906 3.04359375 -0.98757813 2.3371875 -0.69140625 1.609375 C-0.46324219 1.07828125 -0.23507812 0.5471875 0 0 Z " fill="#9CB30A" transform="translate(523,585)"/>
<path d="M0 0 C0.91933305 3.67733219 0.99485581 5.59899538 0.5625 9.25 C0.46066406 10.14203125 0.35882812 11.0340625 0.25390625 11.953125 C0.12822266 12.96632813 0.12822266 12.96632813 0 14 C-0.12375 13.360625 -0.2475 12.72125 -0.375 12.0625 C-0.58125 11.381875 -0.7875 10.70125 -1 10 C-1.66 9.67 -2.32 9.34 -3 9 C-2.01 6.03 -1.02 3.06 0 0 Z " fill="#97AA04" transform="translate(528,723)"/>
<path d="M0 0 C0.66 0.33 1.32 0.66 2 1 C1.47731534 3.76276177 0.89130413 6.3260876 0 9 C-0.66 9 -1.32 9 -2 9 C-1.34 6.03 -0.68 3.06 0 0 Z " fill="#CEEA07" transform="translate(375,667)"/>
<path d="M0 0 C1.98 0.495 1.98 0.495 4 1 C3.1875 2.9375 3.1875 2.9375 2 5 C1.01 5.33 0.02 5.66 -1 6 C-0.67 4.02 -0.34 2.04 0 0 Z " fill="#1A1C01" transform="translate(1006,659)"/>
<path d="M0 0 C0.66 0 1.32 0 2 0 C2.33 2.31 2.66 4.62 3 7 C1.68 7.33 0.36 7.66 -1 8 C-0.67 5.36 -0.34 2.72 0 0 Z " fill="#242701" transform="translate(542,642)"/>
<path d="M0 0 C0.66 0 1.32 0 2 0 C0.73058503 3.91402949 -0.51167694 5.79072873 -4 8 C-4.66 7.67 -5.32 7.34 -6 7 C-5.04882866 5.8274869 -4.08882991 4.66212985 -3.125 3.5 C-2.59132813 2.8503125 -2.05765625 2.200625 -1.5078125 1.53125 C-0.76144531 0.77328125 -0.76144531 0.77328125 0 0 Z " fill="#212503" transform="translate(952,580)"/>
<path d="M0 0 C0.95904856 3.83619425 0.91892116 5.32431536 0 9 C-0.99 9 -1.98 9 -3 9 C-2.01 6.03 -1.02 3.06 0 0 Z " fill="#AEC908" transform="translate(59,723)"/>
<path d="M0 0 C1.65 1.65 3.3 3.3 5 5 C3.35 5.33 1.7 5.66 0 6 C-0.66 5.01 -1.32 4.02 -2 3 C-1.34 2.01 -0.68 1.02 0 0 Z " fill="#BFD906" transform="translate(1153,725)"/>
<path d="M0 0 C0.495 0.144375 0.99 0.28875 1.5 0.4375 C4.97752922 1.21994407 8.45955123 1.58694764 12 2 C12 2.33 12 2.66 12 3 C8.04 3 4.08 3 0 3 C0 2.01 0 1.02 0 0 Z " fill="#0F1100" transform="translate(1113,684)"/>
<path d="M0 0 C1.98 0.66 3.96 1.32 6 2 C6 2.99 6 3.98 6 5 C3.69 4.67 1.38 4.34 -1 4 C-0.67 2.68 -0.34 1.36 0 0 Z " fill="#222401" transform="translate(77,659)"/>
<path d="M0 0 C0.33 0 0.66 0 1 0 C1 2.97 1 5.94 1 9 C0.01 9.495 0.01 9.495 -1 10 C-2.46726798 6.18510326 -1.43336419 3.70988378 0 0 Z " fill="#E0F90D" transform="translate(295,615)"/>
<path d="M0 0 C0.66 0.99 1.32 1.98 2 3 C1.125 6.1875 1.125 6.1875 0 9 C-1.125 7.3125 -1.125 7.3125 -2 5 C-1.125 2.25 -1.125 2.25 0 0 Z " fill="#C1D507" transform="translate(105,577)"/>
<path d="M0 0 C0.99 0 1.98 0 3 0 C3 1.98 3 3.96 3 6 C2.01 6 1.02 6 0 6 C0 4.02 0 2.04 0 0 Z " fill="#131700" transform="translate(89,731)"/>
<path d="M0 0 C1.32 0.33 2.64 0.66 4 1 C3.67 2.65 3.34 4.3 3 6 C2.01 6 1.02 6 0 6 C0 4.02 0 2.04 0 0 Z " fill="#171C00" transform="translate(528,731)"/>
<path d="M0 0 C0.66 0.66 1.32 1.32 2 2 C1.67028521 5.29714793 1.3773161 6.6226839 -1 9 C-2.0326802 6.21176345 -2.04509293 5.1322726 -1.0625 2.25 C-0.711875 1.5075 -0.36125 0.765 0 0 Z " fill="#C1D707" transform="translate(94,720)"/>
<path d="M0 0 C-0.33 0.66 -0.66 1.32 -1 2 C-2.33333333 2.33333333 -3.66666667 2.66666667 -5 3 C-5.33 3.66 -5.66 4.32 -6 5 C-6.33 3.68 -6.66 2.36 -7 1 C-3.375 -1.125 -3.375 -1.125 0 0 Z " fill="#2D3101" transform="translate(920,702)"/>
<path d="M0 0 C0.99 0.66 1.98 1.32 3 2 C2.34 2 1.68 2 1 2 C0.67 3.98 0.34 5.96 0 8 C-0.66 7.67 -1.32 7.34 -2 7 C-1.125 1.125 -1.125 1.125 0 0 Z " fill="#C7DE05" transform="translate(626,657)"/>
<path d="M0 0 C0.66 0.66 1.32 1.32 2 2 C1.625 5.125 1.625 5.125 1 8 C0.01 7.67 -0.98 7.34 -2 7 C-1.34 4.69 -0.68 2.38 0 0 Z " fill="#CDE507" transform="translate(901,642)"/>
<path d="M0 0 C0.66 0.66 1.32 1.32 2 2 C1.96712417 4.72869407 1.43602229 7.2966618 1 10 C-1.56687367 6.1496895 -0.83288724 4.41430237 0 0 Z " fill="#BFD907" transform="translate(553,629)"/>
<path d="M0 0 C0.66 1.32 1.32 2.64 2 4 C0.35 5.32 -1.3 6.64 -3 8 C-3.66 7.67 -4.32 7.34 -5 7 C-4.360625 6.21625 -3.72125 5.4325 -3.0625 4.625 C-1.01857687 2.20460719 -1.01857687 2.20460719 0 0 Z " fill="#B8D207" transform="translate(815,576)"/>
<path d="M0 0 C1.98 1.65 3.96 3.3 6 5 C3 6 3 6 0.8125 5.0625 C0.214375 4.711875 -0.38375 4.36125 -1 4 C-0.67 2.68 -0.34 1.36 0 0 Z " fill="#272E02" transform="translate(236,725)"/>
<path d="M0 0 C1.80411967 2.75924185 2.0127245 3.88972103 1.625 7.25 C1.41875 8.1575 1.2125 9.065 1 10 C0.34 9.34 -0.32 8.68 -1 8 C-0.96712417 5.27130593 -0.43602229 2.7033382 0 0 Z " fill="#BFDA07" transform="translate(539,682)"/>
<path d="M0 0 C0.82638376 2.89234315 1 4.88742431 1 8 C0.34 8 -0.32 8 -1 8 C-1.33 8.66 -1.66 9.32 -2 10 C-1.54177532 6.53058454 -1.10868317 3.32604951 0 0 Z " fill="#A7C106" transform="translate(668,679)"/>
<path d="M0 0 C4.75 0.875 4.75 0.875 7 2 C6.34 3.32 5.68 4.64 5 6 C4.67 4.68 4.34 3.36 4 2 C3.01 2.33 2.02 2.66 1 3 C0.67 2.01 0.34 1.02 0 0 Z " fill="#272B02" transform="translate(165,660)"/>
<path d="M0 0 C1.32 0.66 2.64 1.32 4 2 C3.01 2.33 2.02 2.66 1 3 C-0.20882096 5.00016466 -0.20882096 5.00016466 -1 7 C-1.33 6.34 -1.66 5.68 -2 5 C-1.0625 2.375 -1.0625 2.375 0 0 Z " fill="#212502" transform="translate(460,618)"/>
</svg>
